<svg width="195" height="144" viewBox="0 0 195 144" fill="none" xmlns="http://www.w3.org/2000/svg">
<g opacity="0.2">
<circle opacity="0.3" cx="63.0634" cy="63.3088" r="62.7044" fill="#3284FF"/>
<path d="M67.624 128.954L67.6244 128.954C68.362 128.953 69.0691 128.66 69.5907 128.138C70.1122 127.617 70.4056 126.91 70.4064 126.172V126.172C70.4064 125.621 70.2432 125.084 69.9375 124.626C69.6317 124.168 69.1972 123.812 68.6888 123.601C68.1804 123.391 67.621 123.336 67.0812 123.443C66.5415 123.55 66.0458 123.815 65.6566 124.204C65.2675 124.593 65.0025 125.089 64.8952 125.629C64.7878 126.169 64.8429 126.728 65.0535 127.237C65.2641 127.745 65.6207 128.179 66.0783 128.485C66.5358 128.791 67.0738 128.954 67.624 128.954ZM63.7645 120.396C64.9069 119.632 66.2499 119.225 67.6238 119.225C69.4657 119.227 71.2315 119.959 72.5339 121.262C73.8363 122.564 74.5689 124.33 74.5711 126.172C74.5711 127.546 74.1636 128.889 73.4003 130.031C72.6369 131.174 71.552 132.064 70.2826 132.59C69.0131 133.116 67.6163 133.253 66.2687 132.985C64.9212 132.717 63.6833 132.056 62.7118 131.084C61.7402 130.112 61.0786 128.875 60.8105 127.527C60.5425 126.179 60.68 124.783 61.2058 123.513C61.7316 122.244 62.6221 121.159 63.7645 120.396Z" fill="#3284FF" stroke="#F2F2F2" stroke-width="0.7"/>
<path d="M169.782 128.954L169.783 128.954C170.52 128.953 171.227 128.66 171.749 128.138C172.27 127.617 172.564 126.91 172.565 126.172V126.172C172.565 125.621 172.401 125.084 172.096 124.626C171.79 124.168 171.355 123.812 170.847 123.601C170.339 123.391 169.779 123.336 169.239 123.443C168.7 123.55 168.204 123.815 167.815 124.204C167.426 124.593 167.161 125.089 167.053 125.629C166.946 126.169 167.001 126.728 167.212 127.237C167.422 127.745 167.779 128.179 168.236 128.485C168.694 128.791 169.232 128.954 169.782 128.954ZM165.923 120.396C167.065 119.632 168.408 119.225 169.782 119.225C171.624 119.227 173.39 119.959 174.692 121.262C175.994 122.564 176.727 124.33 176.729 126.172C176.729 127.546 176.322 128.889 175.558 130.031C174.795 131.174 173.71 132.064 172.441 132.59C171.171 133.116 169.775 133.253 168.427 132.985C167.079 132.717 165.842 132.056 164.87 131.084C163.898 130.112 163.237 128.875 162.969 127.527C162.701 126.179 162.838 124.783 163.364 123.513C163.89 122.244 164.78 121.159 165.923 120.396Z" fill="#3284FF" stroke="#F2F2F2" stroke-width="0.7"/>
<path d="M188.213 97.0978L188.295 97.334H188.544H191.673C192.226 97.334 192.755 97.5534 193.146 97.9439C193.536 98.3344 193.756 98.8641 193.756 99.4163V126.172C193.756 126.724 193.536 127.254 193.146 127.645C192.755 128.035 192.226 128.254 191.673 128.254H186.632H186.329L186.286 128.554C185.713 132.523 183.73 136.153 180.699 138.779C177.668 141.404 173.792 142.849 169.782 142.849C165.772 142.849 161.897 141.404 158.866 138.779C155.835 136.153 153.851 132.523 153.279 128.554L153.236 128.254H152.933H84.4738H84.1706L84.1273 128.554C83.5551 132.523 81.5717 136.153 78.5407 138.779C75.5097 141.404 71.634 142.849 67.624 142.849C63.6141 142.849 59.7384 141.404 56.7074 138.779C53.6763 136.153 51.693 132.523 51.1207 128.554L51.0775 128.254H50.7743H45.733C45.1807 128.254 44.6511 128.035 44.2606 127.645C43.87 127.254 43.6507 126.724 43.6507 126.172V48.3372C43.6507 47.785 43.87 47.2553 44.2606 46.8648C44.6511 46.4743 45.1807 46.2549 45.733 46.2549H147.891C148.443 46.2549 148.973 46.4743 149.364 46.8648C149.754 47.2553 149.974 47.785 149.974 48.3372V67.796V68.146H150.324H176.775C177.209 68.146 177.632 68.2815 177.985 68.5334C178.338 68.7854 178.603 69.1413 178.744 69.5515L188.213 97.0978ZM175.37 72.5469L175.289 72.3106H175.039H150.324H149.974V72.6606V96.984V97.334H150.324H183.401H183.891L183.732 96.8702L175.37 72.5469ZM48.1653 50.4196H47.8153V50.7696V123.74V124.09H48.1653H50.7743H51.0775L51.1207 123.79C51.693 119.821 53.6763 116.191 56.7074 113.566C59.7384 110.94 63.6141 109.495 67.624 109.495C71.634 109.495 75.5097 110.94 78.5407 113.566C81.5717 116.191 83.5551 119.821 84.1273 123.79L84.1706 124.09H84.4738H145.459H145.809V123.74V50.7696V50.4196H145.459H48.1653ZM67.624 138.684H67.6244C70.9415 138.68 74.1216 137.361 76.4671 135.015C78.8127 132.67 80.132 129.49 80.1357 126.172V126.172C80.1357 123.697 79.4019 121.278 78.0271 119.221C76.6523 117.163 74.6983 115.56 72.4121 114.613C70.1258 113.666 67.6102 113.418 65.1831 113.901C62.7561 114.384 60.5267 115.575 58.7769 117.325C57.0271 119.075 55.8355 121.304 55.3528 123.731C54.87 126.158 55.1178 128.674 56.0647 130.96C57.0117 133.246 58.6154 135.2 60.6729 136.575C62.7305 137.95 65.1495 138.684 67.624 138.684ZM169.782 138.684H169.783C173.1 138.68 176.28 137.361 178.625 135.015C180.971 132.67 182.29 129.49 182.294 126.172V126.172C182.294 123.697 181.56 121.278 180.185 119.221C178.811 117.163 176.856 115.56 174.57 114.613C172.284 113.666 169.768 113.418 167.341 113.901C164.914 114.384 162.685 115.575 160.935 117.325C159.185 119.075 157.994 121.304 157.511 123.731C157.028 126.158 157.276 128.674 158.223 130.96C159.17 133.246 160.774 135.2 162.831 136.575C164.889 137.95 167.308 138.684 169.782 138.684ZM189.241 124.09H189.591V123.74V101.849V101.499H189.241H150.324H149.974V101.849V123.74V124.09H150.324H152.933H153.236L153.279 123.79C153.851 119.821 155.835 116.191 158.866 113.566C161.897 110.94 165.772 109.495 169.782 109.495C173.792 109.495 177.668 110.94 180.699 113.566C183.73 116.191 185.713 119.821 186.286 123.79L186.329 124.09H186.632H189.241Z" fill="#3284FF" stroke="#F2F2F2" stroke-width="0.7"/>
<path d="M106.891 94.5515V94.2015H106.541H70.0564C69.5041 94.2015 68.9744 93.9821 68.5839 93.5916C68.1934 93.2011 67.974 92.6715 67.974 92.1192V72.6605C67.974 72.1082 68.1934 71.5786 68.5839 71.1881C68.9744 70.7975 69.5041 70.5782 70.0564 70.5782H106.541H106.891V70.2282V65.3635C106.891 64.9634 107.007 64.5718 107.223 64.2355C107.44 63.8992 107.749 63.6325 108.113 63.4671C108.478 63.3018 108.882 63.2449 109.278 63.3033C109.673 63.3617 110.044 63.5328 110.345 63.7962L129.804 80.8226L130.034 80.5592L129.804 80.8226C130.027 81.0181 130.206 81.259 130.329 81.5293C130.451 81.7996 130.515 82.093 130.515 82.3898C130.515 82.6867 130.451 82.9801 130.329 83.2504C130.206 83.5207 130.027 83.7616 129.804 83.9571L130.034 84.2205L129.804 83.9571L110.345 100.983C110.044 101.247 109.673 101.418 109.278 101.476C108.882 101.535 108.478 101.478 108.113 101.313C107.749 101.147 107.44 100.88 107.223 100.544C107.007 100.208 106.891 99.8163 106.891 99.4162V94.5515ZM72.4887 74.7428H72.1387V75.0928V89.6869V90.0369H72.4887H108.974C109.526 90.0369 110.056 90.2562 110.446 90.6468C110.837 91.0373 111.056 91.5669 111.056 92.1192V94.0559V94.8273L111.637 94.3193L124.969 82.6532L125.27 82.3898L124.969 82.1264L111.637 70.4603L111.056 69.9524V70.7237V72.6605C111.056 73.2128 110.837 73.7424 110.446 74.1329C110.056 74.5234 109.526 74.7428 108.974 74.7428H72.4887Z" fill="#3284FF" stroke="#F2F2F2" stroke-width="0.7"/>
</g>
</svg>
