<svg width="188" height="126" viewBox="0 0 188 126" fill="none" xmlns="http://www.w3.org/2000/svg">
<g opacity="0.2">
<path d="M179.551 70.2863L179.551 70.2861L186.599 61.9273L186.828 62.1207L186.599 61.9273C186.929 61.5353 187.082 61.0235 187.022 60.5143L183.748 33.0798L184.046 33.0442L183.748 33.0797C183.662 32.3616 183.166 31.7588 182.477 31.5366C181.789 31.3152 181.034 31.5141 180.545 32.0468L165.721 48.1945L165.644 48.2785L165.53 48.29L138.439 51.0491L138.439 51.0491C137.422 51.1526 136.681 52.0616 136.784 53.0788L179.551 70.2863ZM179.551 70.2863C179.441 70.4171 179.314 70.5319 179.171 70.6275L179.171 70.6278L167.298 78.636L167.155 78.7326L167.167 78.905L167.943 90.3347L167.96 90.5889L168.214 90.6131L176.719 91.423C177.414 91.4892 178.012 91.94 178.267 92.5893L183.675 106.357L183.675 106.357C183.845 106.79 183.846 107.27 183.678 107.704L183.678 107.704L179.861 117.538C179.618 118.165 179.054 118.61 178.387 118.702L178.387 118.702C177.72 118.794 177.057 118.516 176.653 117.978L168.956 107.706L168.847 107.562L168.669 107.59L161.855 108.666L161.681 108.693L161.62 108.858L158.615 117.016L158.896 117.12L158.615 117.016C158.393 117.619 157.875 118.063 157.245 118.191L138.6 121.971L138.659 122.265L138.6 121.971C138.475 121.996 138.351 122.008 138.229 122.008C137.367 122.008 136.595 121.402 136.417 120.524C136.213 119.521 136.861 118.544 137.863 118.341L155.333 114.8L155.497 114.767L155.555 114.61L158.581 106.394C158.813 105.764 159.368 105.31 160.03 105.205L169.371 103.73C169.371 103.73 169.371 103.73 169.371 103.73C170.05 103.623 170.73 103.899 171.142 104.448L177.292 112.655L177.616 113.087L177.811 112.584L179.921 107.147L179.964 107.038L179.921 106.929L175.303 95.1735L175.236 95.002L175.052 94.9846L166.043 94.1267L166.015 94.4254L166.043 94.1267C165.14 94.0408 164.432 93.3137 164.371 92.4088L163.388 77.9196C163.343 77.261 163.653 76.6284 164.2 76.2589L176.851 67.7252L176.886 67.7018L176.912 67.6699L183.165 60.2544L183.249 60.1549L183.233 60.0255L180.625 38.1682L180.548 37.5199L180.106 38.0009L167.896 51.3018L168.1 51.4896L167.896 51.3018C167.589 51.6358 167.171 51.8456 166.719 51.8916L138.814 54.7336L138.814 54.7336M179.551 70.2863L138.814 54.7336M138.814 54.7336C137.799 54.838 136.888 54.0965 136.784 53.0789L138.814 54.7336Z" fill="#3284FF" stroke="#F2F2F2" stroke-width="0.6"/>
<path d="M128.424 120.255L128.424 120.255L121.292 121.701L121.13 121.734L121.016 121.614L104.027 103.79L104.244 103.583L104.027 103.79C103.566 103.307 102.882 103.109 102.234 103.272L102.234 103.272L89.9074 106.378L89.7219 106.425L89.6012 106.277L84.0748 99.4748C83.7616 99.0896 83.3073 98.8461 82.813 98.799L62.1633 96.8323L62.1632 96.8323C61.6452 96.7827 61.1281 96.9545 60.7423 97.3055L60.7422 97.3056C60.3563 97.6565 60.136 98.154 60.136 98.6756V103.207V103.329L60.0505 103.417L51.8817 111.769L51.497 112.162L51.3747 111.626L48.6974 99.8822L48.6772 99.7936L48.7095 99.7088L52.1769 90.5995C52.1769 90.5995 52.1769 90.5995 52.177 90.5995C52.357 90.1263 52.3357 89.6002 52.1177 89.1436L52.1176 89.1434C51.8999 88.6865 51.5045 88.3389 51.0236 88.1814L51.0235 88.1814L45.066 86.2276L44.8021 86.141L44.8681 85.8712L52.106 56.2972L52.1354 56.1772L52.2408 56.1126L65.9034 47.7542L66.0407 47.6702L66.1865 47.7381L77.7792 53.1303L77.7793 53.1303C78.7065 53.5619 79.8077 53.1598 80.239 52.2324C80.6704 51.305 80.2684 50.2039 79.3411 49.7725L66.7024 43.8937C66.7024 43.8937 66.7024 43.8937 66.7024 43.8937C66.1402 43.6323 65.4839 43.6695 64.9551 43.9929L128.424 120.255ZM128.424 120.255C129.428 120.051 130.404 120.7 130.607 121.702L130.607 121.702C130.81 122.705 130.162 123.682 129.16 123.885L120.863 125.567L128.424 120.255ZM49.5519 53.4164L64.955 43.993L120.863 125.567C120.74 125.592 120.617 125.604 120.495 125.604C119.994 125.604 119.508 125.4 119.155 125.03L102.212 107.254L102.091 107.127L101.921 107.17L89.4816 110.305L89.4815 110.305C88.7837 110.481 88.0462 110.236 87.5921 109.677L87.3593 109.866L87.5921 109.677L81.769 102.51L81.6897 102.412L81.5646 102.4L64.168 100.743L63.8395 100.712V101.042V104.084C63.8395 104.568 63.6501 105.033 63.3117 105.379L63.3117 105.379L51.7698 117.179C51.7698 117.179 51.7698 117.179 51.7698 117.179C51.2957 117.664 50.595 117.85 49.9429 117.667C49.291 117.483 48.7912 116.957 48.6406 116.296L48.3481 116.363L48.6406 116.296L44.9413 100.07C44.8601 99.7141 44.886 99.3415 45.0161 99.0002L45.0161 99.0001L47.9132 91.3896L48.0251 91.0958L47.7263 90.9978L42.0185 89.1261C41.0993 88.8246 40.5668 87.8661 40.7969 86.9262L40.5055 86.8549L40.7969 86.9262L48.7195 54.5556C48.7195 54.5556 48.7195 54.5556 48.7195 54.5555C48.8358 54.081 49.1351 53.6714 49.5518 53.4164C49.5518 53.4164 49.5518 53.4164 49.5519 53.4164Z" fill="#3284FF" stroke="#F2F2F2" stroke-width="0.6"/>
<path d="M108.315 73.7152L108.719 74.0849L109.124 73.7152C115.182 68.1812 119.69 63.0766 122.689 58.4604C125.683 53.8502 127.2 49.6826 127.2 46.0347C127.2 34.8936 119.042 26.9585 108.719 26.9585C98.3972 26.9585 90.2392 34.8936 90.2392 46.0347C90.2392 49.6826 91.7559 53.8502 94.7502 58.4604C97.7485 63.0766 102.257 68.1812 108.315 73.7152ZM108.719 50.7987C105.773 50.7987 103.359 48.3853 103.359 45.4387C103.359 42.492 105.773 40.0786 108.719 40.0786C111.666 40.0786 114.079 42.492 114.079 45.4387C114.079 48.3853 111.666 50.7987 108.719 50.7987ZM108.719 22.1984C120.923 22.1984 131.96 31.5438 131.96 46.0347C131.96 50.8198 130.035 56.1042 126.099 61.9055C122.23 67.6094 116.443 73.7764 108.719 80.4092C100.996 73.7764 95.2085 67.6094 91.3395 61.9055C87.4043 56.1042 85.4792 50.8198 85.4792 46.0347C85.4792 31.5438 96.516 22.1984 108.719 22.1984Z" fill="#3284FF" stroke="#F2F2F2" stroke-width="1.2"/>
<circle opacity="0.3" cx="62.7113" cy="63.1992" r="62.7044" fill="#3284FF"/>
</g>
</svg>
