<svg width="163" height="155" viewBox="0 0 163 155" fill="none" xmlns="http://www.w3.org/2000/svg">
<g opacity="0.2">
<circle opacity="0.3" cx="62.9755" cy="63.4995" r="62.7044" fill="#3284FF"/>
<path d="M81.5128 141.996C81.5128 135.431 86.8547 130.09 93.4198 130.09C99.9849 130.09 105.327 135.431 105.327 141.996C105.327 148.562 99.9849 153.903 93.4198 153.903C86.8547 153.903 81.5128 148.562 81.5128 141.996ZM85.7366 141.996C85.7366 146.233 89.1831 149.68 93.4198 149.68C97.6568 149.68 101.103 146.233 101.103 141.996C101.103 137.759 97.6568 134.313 93.4198 134.313C89.1827 134.313 85.7366 137.759 85.7366 141.996Z" fill="#3284FF" stroke="#F2F2F2" stroke-width="0.7"/>
<path d="M130.135 141.996C130.135 135.431 135.477 130.09 142.042 130.09C148.606 130.09 153.948 135.431 153.948 141.996C153.948 148.562 148.607 153.903 142.042 153.903C135.477 153.903 130.135 148.562 130.135 141.996ZM134.359 141.996C134.359 146.233 137.805 149.68 142.042 149.68C146.278 149.68 149.725 146.233 149.725 141.996C149.725 137.759 146.278 134.313 142.042 134.313C137.805 134.313 134.359 137.759 134.359 141.996Z" fill="#3284FF" stroke="#F2F2F2" stroke-width="0.7"/>
<path d="M71.8181 122.36V122.71H72.1681H159.935C161.102 122.71 162.047 123.656 162.047 124.822C162.047 125.988 161.102 126.934 159.935 126.934H69.7065C68.5399 126.934 67.5946 125.988 67.5946 124.822V61.3925V61.2475L67.4921 61.145L48.2332 41.8864L48.2332 41.8864C47.4085 41.062 47.4084 39.7248 48.2332 38.9C49.0577 38.0755 50.3946 38.0749 51.22 38.9C51.22 38.9 51.22 38.9 51.2201 38.9L71.1997 58.8797C71.5956 59.2755 71.8181 59.8128 71.8181 60.3729V122.36Z" fill="#3284FF" stroke="#F2F2F2" stroke-width="0.7"/>
<path d="M83.1917 53.3884H82.8417V53.7384V115.386C82.8417 116.552 81.8965 117.498 80.7298 117.498C79.5635 117.498 78.6179 116.552 78.6179 115.386V51.2765C78.6179 50.1101 79.5632 49.1646 80.7298 49.1646H103.555H129.01H151.836C153.003 49.1646 153.948 50.1101 153.948 51.2765V115.386C153.948 116.552 153.003 117.498 151.836 117.498H107.129C105.962 117.498 105.017 116.552 105.017 115.386C105.017 114.219 105.962 113.274 107.129 113.274H149.375H149.725V112.924V53.7384V53.3884H149.375H131.473H131.123V53.7384V77.6203C131.123 78.4107 130.682 79.1347 129.979 79.4971L129.979 79.4971C129.674 79.6545 129.342 79.7322 129.011 79.7322C128.58 79.7322 128.152 79.6005 127.788 79.3416C127.788 79.3416 127.788 79.3416 127.788 79.3416L116.486 71.31L116.283 71.1659L116.081 71.31L104.779 79.3416L104.779 79.3418C104.136 79.7995 103.289 79.8598 102.588 79.4969L102.588 79.4968C101.885 79.1341 101.444 78.4101 101.444 77.62V65.2367C101.444 64.0703 102.389 63.1248 103.556 63.1248C104.722 63.1248 105.668 64.0703 105.668 65.2367V72.8502V73.5283L106.22 73.1355L115.06 66.8534L115.06 66.8533C115.792 66.3327 116.774 66.3327 117.507 66.8534L126.346 73.1355L126.899 73.5283V72.8502V53.7384V53.3884H126.549H103.555H83.1917Z" fill="#3284FF" stroke="#F2F2F2" stroke-width="0.7"/>
<path d="M140.549 140.503C140.155 140.897 139.93 141.441 139.93 141.998C139.93 142.552 140.155 143.096 140.549 143.491C140.549 143.491 140.549 143.491 140.549 143.491M140.549 140.503L140.549 143.491M140.549 140.503C140.941 140.112 141.488 139.883 142.041 139.883C142.595 139.883 143.143 140.112 143.534 140.503C143.928 140.897 144.153 141.441 144.153 141.998C144.153 142.552 143.928 143.096 143.534 143.491M140.549 140.503L143.534 143.491M140.549 143.491C140.94 143.881 141.484 144.107 142.041 144.107C142.596 144.107 143.143 143.881 143.534 143.491M140.549 143.491H143.534" fill="#3284FF" stroke="#F2F2F2" stroke-width="0.7"/>
<path d="M91.9249 140.503C92.3194 140.112 92.864 139.886 93.4208 139.886C93.9751 139.886 94.5227 140.112 94.9129 140.503C95.3067 140.897 95.5326 141.441 95.5326 141.998C95.5326 142.551 95.3071 143.096 94.9134 143.49C94.5186 143.882 93.9741 144.107 93.4208 144.107C92.8667 144.107 92.3189 143.881 91.9249 143.491C91.5342 143.096 91.3089 142.551 91.3089 141.998C91.3089 141.441 91.5341 140.897 91.9249 140.503Z" fill="#3284FF" stroke="#F2F2F2" stroke-width="0.7"/>
</g>
</svg>
