<svg width="158" height="156" viewBox="0 0 158 156" fill="none" xmlns="http://www.w3.org/2000/svg">
<g opacity="0.2">
<circle opacity="0.3" cx="62.9759" cy="63.4995" r="62.7044" fill="#3284FF"/>
<path d="M55.9968 109.142L55.9968 109.142V40.1998C55.9968 37.2263 57.2257 34.3776 59.4084 32.2794C61.5907 30.1816 64.5476 29.0054 67.628 29.0054C70.7084 29.0054 73.6653 30.1816 75.8475 32.2794C78.0302 34.3776 79.2591 37.2263 79.2591 40.1998V109.142V109.142C79.2589 109.442 79.3364 109.738 79.4856 110.004C79.6349 110.269 79.8515 110.496 80.1172 110.663C80.1172 110.663 80.1173 110.663 80.1174 110.663L79.9312 110.959L55.9968 109.142ZM55.9968 109.142C55.9971 109.442 55.9196 109.738 55.7703 110.004C55.6211 110.269 55.4044 110.496 55.1388 110.663M55.9968 109.142L55.1388 110.663M55.1388 110.663C55.1387 110.663 55.1387 110.663 55.1386 110.663L55.3248 110.959L55.1388 110.663ZM83.0716 108.001V108.185L83.2227 108.289C87.817 111.461 91.2435 115.95 93.0118 121.11C94.7801 126.269 94.7999 131.834 93.0686 137.004C91.3371 142.175 87.9428 146.687 83.3714 149.889C78.7998 153.091 73.2875 154.817 67.628 154.817C61.9685 154.817 56.4562 153.091 51.8846 149.889C47.3131 146.687 43.9188 142.175 42.1874 137.004C40.456 131.834 40.4759 126.269 42.2441 121.11C44.0125 115.95 47.439 111.461 52.0332 108.289L52.1844 108.185V108.001V40.1998C52.1844 36.2707 53.808 32.4995 56.7028 29.7168C59.598 26.9336 63.5277 25.3677 67.628 25.3677C71.7282 25.3677 75.6579 26.9336 78.5532 29.7168C81.448 32.4995 83.0716 36.2707 83.0716 40.1998V108.001Z" fill="#3284FF" stroke="#F2F2F2" stroke-width="0.7"/>
<path d="M65.0217 113.84L65.0217 113.839V40.1996C65.0217 39.527 65.2998 38.8849 65.79 38.4137C66.2797 37.9429 66.9411 37.6807 67.628 37.6807C68.3148 37.6807 68.9762 37.9429 69.4659 38.4137C69.9561 38.8849 70.2342 39.527 70.2342 40.1996V113.839V113.84C70.2339 114.14 70.3115 114.436 70.4607 114.701C70.61 114.967 70.8266 115.194 71.0923 115.36L65.0217 113.84ZM65.0217 113.84C65.022 114.14 64.9445 114.436 64.7952 114.701C64.6459 114.967 64.4292 115.194 64.1635 115.361L60.0709 117.928C60.0709 117.928 60.0709 117.928 60.0708 117.928C57.5671 119.499 55.6549 121.806 54.6213 124.508C53.5877 127.211 53.489 130.163 54.3402 132.924C55.1913 135.685 56.9459 138.106 59.3401 139.827C61.7342 141.549 64.6406 142.481 67.6273 142.487H67.6286C70.6153 142.481 73.5218 141.549 75.9158 139.827C78.31 138.106 80.0646 135.685 80.9157 132.924C81.7669 130.163 81.6682 127.211 80.6346 124.508C79.601 121.806 77.6888 119.499 75.1851 117.928C75.1851 117.928 75.185 117.928 75.185 117.928L71.0924 115.361L65.0217 113.84ZM77.2791 114.888L77.5277 115.045C80.6059 117.039 82.9537 119.914 84.2374 123.263C85.5552 126.7 85.682 130.454 84.5989 133.966C83.5158 137.478 81.2801 140.562 78.222 142.757C75.1637 144.952 71.4477 146.139 67.628 146.139C63.8082 146.139 60.0922 144.952 57.0339 142.757C53.9759 140.562 51.7401 137.478 50.657 133.966C49.574 130.454 49.7007 126.7 51.0186 123.263C52.3365 119.825 54.7761 116.886 57.9763 114.887L57.9767 114.886L61.0452 112.963L61.2093 112.86V112.666V40.1996C61.2093 38.5713 61.882 37.0068 63.0843 35.8511C64.2871 34.6949 65.9213 34.043 67.628 34.043C69.3347 34.043 70.9688 34.6949 72.1716 35.8511C73.3739 37.0068 74.0466 38.5713 74.0466 40.1996V112.666V112.86L74.2106 112.963L77.2791 114.888Z" fill="#3284FF" stroke="#F2F2F2" stroke-width="0.7"/>
<path d="M124.034 86.0962H124.034C131.899 86.0875 139.441 83.0805 145.006 77.7308C150.572 72.3806 153.706 65.1237 153.715 57.5512V57.5508C153.715 51.9019 151.972 46.3811 148.709 41.6866C145.446 36.9922 140.809 33.3354 135.388 31.1765C129.966 29.0177 124.001 28.453 118.246 29.5534C112.491 30.6539 107.203 33.3703 103.051 37.3614C98.899 41.3525 96.0698 46.4393 94.9235 51.9793C93.7771 57.5193 94.3656 63.2615 96.6139 68.4792C98.8621 73.6967 102.668 78.154 107.549 81.2889C112.43 84.4238 118.166 86.0962 124.034 86.0962ZM105.42 30.795C110.929 27.257 117.406 25.3677 124.033 25.3677C132.918 25.3774 141.433 28.7745 147.711 34.8095C153.989 40.8442 157.517 49.0231 157.527 57.5512C157.527 63.9132 155.565 70.1334 151.886 75.4255C148.207 80.7179 142.977 84.8448 136.855 87.2823C130.734 89.7199 123.997 90.3579 117.497 89.1151C110.997 87.8722 105.029 84.8049 100.345 80.3029C95.6621 75.801 92.4745 70.067 91.1832 63.8268C89.892 57.5867 90.5546 51.1184 93.0878 45.2394C95.6211 39.3603 99.9121 34.333 105.42 30.795Z" fill="#3284FF" stroke="#F2F2F2" stroke-width="0.7"/>
<path d="M132.709 57.5506V57.9006H133.059H139.827C140.196 57.9006 140.557 58.0028 140.865 58.1937C141.173 58.3845 141.415 58.6553 141.565 58.9721C141.715 59.2888 141.766 59.6392 141.714 59.982L142.059 60.0349L141.714 59.982C141.661 60.3248 141.507 60.6476 141.267 60.9112L125.474 78.262L125.474 78.2622C125.296 78.458 125.075 78.6159 124.827 78.7244C124.578 78.833 124.308 78.8893 124.034 78.8893C123.76 78.8893 123.489 78.833 123.241 78.7244L123.101 79.0452L123.241 78.7244C122.992 78.6159 122.772 78.458 122.594 78.2622L122.594 78.262L106.8 60.9112C106.56 60.6476 106.406 60.3248 106.354 59.982C106.301 59.6392 106.353 59.2888 106.502 58.9721C106.652 58.6553 106.894 58.3845 107.203 58.1937C107.511 58.0028 107.871 57.9006 108.24 57.9006H115.009H115.359V57.5506V35.8619C115.359 35.384 115.556 34.9228 115.912 34.5806C116.269 34.2378 116.755 34.043 117.265 34.043H130.802C131.312 34.043 131.799 34.2378 132.155 34.5806C132.511 34.9228 132.709 35.384 132.709 35.8619V57.5506ZM123.775 74.0117L124.034 74.2957L124.292 74.0117L135.122 62.1241L135.656 61.5384H134.864H130.802C130.292 61.5384 129.806 61.3435 129.45 61.0008C129.093 60.6585 128.896 60.1973 128.896 59.7195V38.0307V37.6807H128.546H119.521H119.171V38.0307V59.7195C119.171 60.1973 118.974 60.6585 118.618 61.0008C118.261 61.3435 117.775 61.5384 117.265 61.5384H113.204H112.411L112.945 62.1241L123.775 74.0117Z" fill="#3284FF" stroke="#F2F2F2" stroke-width="0.7"/>
</g>
</svg>
