<svg width="151" height="135" viewBox="0 0 151 135" fill="none" xmlns="http://www.w3.org/2000/svg">
<g opacity="0.2">
<circle opacity="0.3" cx="62.9755" cy="63.571" r="62.7044" fill="#3284FF"/>
<path d="M49.9154 38.1239L49.9154 38.1239L36.4383 63.9553L36.1724 63.8165L36.4383 63.9553C36.1234 64.5587 36.1467 65.2823 36.4993 65.8645L49.9154 38.1239ZM49.9154 38.1239C50.2507 37.4812 50.9157 37.0781 51.6408 37.0781H135.199C135.924 37.0781 136.589 37.4811 136.924 38.124M49.9154 38.1239L49.6494 37.9852C50.0364 37.2433 50.8039 36.7781 51.6408 36.7781H135.199C136.036 36.7781 136.803 37.2433 137.19 37.9852M42.9773 133.829C43.3951 134.246 43.9746 134.487 44.5654 134.487H142.274C142.865 134.487 143.445 134.247 143.862 133.829C144.28 133.411 144.52 132.834 144.52 132.241V119.887C144.52 118.649 143.512 117.641 142.274 117.641C141.037 117.641 140.03 118.647 140.028 119.883M42.9773 133.829L140.028 129.995V129.695V119.887V119.883M42.9773 133.829L43.1895 133.617C43.1894 133.617 43.1894 133.617 43.1894 133.617M42.9773 133.829L43.1894 133.617M140.028 119.883L140.328 119.883M140.028 119.883H140.328V119.883M140.328 119.883C140.33 118.813 141.202 117.941 142.274 117.941C143.346 117.941 144.22 118.815 144.22 119.887V132.241C144.22 132.754 144.012 133.255 143.65 133.617L143.65 133.617C143.289 133.978 142.785 134.187 142.274 134.187H44.5654C44.0544 134.187 43.5511 133.978 43.1894 133.617M140.328 119.883V119.887V129.995V130.295H140.028H46.8116H46.5116V129.995V67.1018V66.8018H46.8116H140.028H140.328V67.1018V112.582C140.328 113.654 141.202 114.528 142.274 114.528C143.346 114.528 144.22 113.654 144.22 112.582V67.1018V66.8018H144.52H148.676C149.356 66.8018 149.987 66.4464 150.34 65.8645C150.693 65.2826 150.716 64.5586 150.401 63.9553L136.924 38.124M43.1894 133.617L150.667 63.8165L137.19 37.9852M43.1894 133.617C42.8277 133.255 42.6192 132.754 42.6192 132.241V67.1018V66.8018H42.3192H38.1638C37.4832 66.8018 36.8523 66.4464 36.4994 65.8646L43.1894 133.617ZM136.924 38.124L137.19 37.9852M136.924 38.124L136.924 38.1239L137.19 37.9852M41.6033 62.4706L41.3744 62.9094H41.8693H144.97H145.465L145.236 62.4706L134.103 41.1319L134.019 40.9707H133.837H53.0025H52.8206L52.7365 41.1319L41.6033 62.4706Z" fill="#3284FF" stroke="#F2F2F2" stroke-width="0.6"/>
<path d="M95.3159 116.517C95.3159 117.565 94.467 118.414 93.4198 118.414C92.3725 118.414 91.5236 117.565 91.5236 116.517C91.5236 115.47 92.3725 114.621 93.4198 114.621C94.467 114.621 95.3159 115.47 95.3159 116.517Z" fill="#3284FF" stroke="#F2F2F2" stroke-width="0.7"/>
<path d="M93.4198 78.6823C94.4661 78.6823 95.3159 79.5339 95.3159 80.5785V106.41C95.3159 107.454 94.4661 108.306 93.4198 108.306C92.3754 108.306 91.5236 107.454 91.5236 106.41V80.5785C91.5236 79.5341 92.3754 78.6823 93.4198 78.6823Z" fill="#3284FF" stroke="#F2F2F2" stroke-width="0.7"/>
<path d="M58.0424 77.9825H57.6924V78.3325V86.1941C57.6924 87.2412 56.8435 88.0903 55.7962 88.0903C54.749 88.0903 53.9 87.2412 53.9 86.1941V76.0863C53.9 75.0392 54.749 74.1901 55.7962 74.1901H65.9041C66.9513 74.1901 67.8002 75.039 67.8002 76.0863C67.8002 77.1333 66.9513 77.9825 65.9041 77.9825H58.0424Z" fill="#3284FF" stroke="#F2F2F2" stroke-width="0.7"/>
<path d="M129.147 78.3325V77.9825H128.797H120.936C119.888 77.9825 119.039 77.1333 119.039 76.0863C119.039 75.0392 119.888 74.1901 120.936 74.1901H131.043C132.09 74.1901 132.94 75.0392 132.94 76.0863V86.1941C132.94 87.2411 132.09 88.0903 131.043 88.0903C129.996 88.0903 129.147 87.2411 129.147 86.1941V78.3325Z" fill="#3284FF" stroke="#F2F2F2" stroke-width="0.7"/>
<path d="M128.797 119.114H129.147V118.764V110.902C129.147 109.855 129.996 109.006 131.043 109.006C132.09 109.006 132.94 109.855 132.94 110.902V121.01C132.94 122.057 132.09 122.906 131.043 122.906H120.936C119.888 122.906 119.039 122.057 119.039 121.01C119.039 119.963 119.888 119.114 120.936 119.114H128.797Z" fill="#3284FF" stroke="#F2F2F2" stroke-width="0.7"/>
<path d="M57.6924 118.764V119.114H58.0424H65.9041C66.9513 119.114 67.8002 119.963 67.8002 121.01C67.8002 122.057 66.9513 122.906 65.9041 122.906H55.7962C54.749 122.906 53.9 122.057 53.9 121.01V110.902C53.9 109.855 54.749 109.006 55.7962 109.006C56.8435 109.006 57.6924 109.855 57.6924 110.902V118.764Z" fill="#3284FF" stroke="#F2F2F2" stroke-width="0.7"/>
</g>
</svg>
