<svg width="141" height="152" viewBox="0 0 141 152" fill="none" xmlns="http://www.w3.org/2000/svg">
<circle opacity="0.08" cx="62.8063" cy="62.7617" r="62.5" fill="#3284FF"/>
<g opacity="0.3">
<path d="M93.3456 47.125L57.4259 64.7105C56.7517 65.0371 56.321 65.718 56.3153 66.4667V101.37C56.3153 109.645 61.8961 120.172 68.7374 124.836L93.0983 141.446C93.7658 141.899 94.6415 141.899 95.3081 141.446L119.677 124.837C126.519 120.172 132.101 109.645 132.101 101.37V66.5192C132.095 65.7715 131.665 65.0916 130.993 64.764L95.0751 47.126C94.5298 46.8595 93.8919 46.8595 93.3456 47.125ZM128.189 67.7377V101.37C128.189 108.263 123.175 117.718 117.474 121.605L94.2156 137.463L70.9452 121.605C65.2451 117.718 60.2268 108.263 60.2268 101.37V67.6862L94.2041 51.0604L128.189 67.7377Z" fill="#3284FF"/>
<path d="M139.041 59.7609L95.0884 38.1818C94.5422 37.9153 93.9033 37.9153 93.3571 38.1818L49.3813 59.7017C48.7014 60.0254 48.2631 60.7053 48.2478 61.4579V101.37C48.2478 112.165 55.2715 125.387 64.1946 131.47L93.0897 151.165C93.7591 151.619 94.6367 151.619 95.3061 151.165L124.218 131.471C133.142 125.387 140.168 112.165 140.168 101.37V61.5171C140.155 60.7655 139.718 60.0865 139.041 59.7609ZM136.257 101.37C136.257 111.006 129.982 122.808 122.016 128.24L94.2242 147.182L66.4072 128.239C58.442 122.809 52.1593 111.006 52.1593 101.37V62.6773L94.2089 42.1162L136.257 62.7346L136.257 101.37Z" fill="#3284FF"/>
<path d="M78.8723 87.5768C78.1121 86.809 76.8736 86.8033 76.1058 87.5635L70.547 93.0678C69.7801 93.828 69.7735 95.0656 70.5336 95.8334L87.315 112.761C87.6827 113.127 88.1821 113.329 88.7007 113.323H88.7055C89.2211 113.33 89.7196 113.13 90.0882 112.769L117.876 84.9889C118.243 84.6232 118.449 84.1266 118.449 83.608C118.449 83.0895 118.243 82.5929 117.876 82.2272L112.344 76.698C111.58 75.934 110.342 75.934 109.578 76.698L88.7389 97.538L78.8723 87.5768ZM110.962 80.8501L113.727 83.6157L88.7121 108.631L74.6896 94.4707L77.4685 91.7185L87.3427 101.716C87.7056 102.093 88.2041 102.312 88.7274 102.322H88.7322C89.2546 102.312 89.7511 102.097 90.115 101.723L110.962 80.8501Z" fill="#3284FF"/>
</g>
</svg>
