<svg width="169" height="130" viewBox="0 0 169 130" fill="none" xmlns="http://www.w3.org/2000/svg">
<circle opacity="0.08" cx="62.7463" cy="62.9583" r="62.5" fill="#3284FF"/>
<g opacity="0.3">
<path d="M163.405 84.5438L149.989 72.0891C147.123 69.4167 143.353 67.9264 139.434 67.9152H132.153V66.2572C132.166 63.352 131.021 60.5622 128.973 58.5018C126.925 56.4414 124.141 55.2817 121.236 55.2771H101.392V44.4143C101.378 43.6812 100.952 43.019 100.291 42.7023L77.0723 31.3057C76.5395 31.0459 75.9164 31.0459 75.3836 31.3057L52.163 42.6697C51.5054 42.9882 51.0844 43.6514 51.0779 44.3826V65.4589C51.0779 71.5181 54.8308 78.6625 59.8393 82.0773L60.6161 82.625V117.085C60.6161 118.138 61.5438 118.945 62.5973 118.945H69.9876C70.7775 124.519 75.4181 128.743 81.0413 129.006C81.223 129.014 81.4037 129.03 81.5844 129.03C84.5036 129.028 87.3166 127.929 89.4637 125.95C91.4635 124.109 92.7685 121.635 93.1588 118.945H136.053C136.875 124.711 141.813 128.995 147.638 128.995C153.462 128.995 158.401 124.711 159.222 118.945H166.466C166.97 118.957 167.457 118.767 167.82 118.418C168.183 118.068 168.391 117.589 168.398 117.085V95.9403C168.388 91.6127 166.579 87.4844 163.405 84.5438ZM160.801 87.3279C161.024 87.5198 161.233 87.7266 161.43 87.9455H147.111C146.907 87.9632 146.726 87.817 146.699 87.6148V74.3815C146.931 74.5491 147.154 74.7298 147.366 74.9236L160.801 87.3279ZM54.8932 65.4589V45.5721L76.235 35.1425L97.5767 45.6019V65.4589C97.5767 70.2076 94.3483 76.2491 90.4212 78.9252L76.2303 88.5938L62.0338 78.9261C58.1077 76.2491 54.8932 70.2085 54.8932 65.4589ZM75.1014 92.479C75.4246 92.695 75.8055 92.8106 76.194 92.8106C76.5805 92.8106 76.9587 92.695 77.2791 92.479L92.5664 82.08C97.5767 78.6634 101.392 71.5191 101.392 65.4589V59.0924H121.236C123.13 59.0952 124.944 59.8534 126.277 61.1984C127.61 62.5434 128.352 64.3635 128.338 66.2572V92.9531H64.4314V85.2275L75.1014 92.479ZM89.4525 117.697C89.282 121.456 86.4802 124.571 82.759 125.137C79.0387 125.703 75.4367 123.563 74.1559 120.024C72.8742 116.486 74.2714 112.535 77.4915 110.589C80.7116 108.642 84.8594 109.241 87.3967 112.019C88.8126 113.562 89.5531 115.605 89.4525 117.697ZM82.1023 105.647C79.0042 105.49 75.9704 106.58 73.6799 108.673C71.8207 110.386 70.5567 112.648 70.0696 115.129H64.4314V96.7684H128.338V115.129H93.0759C92.6819 112.995 91.6899 111.015 90.2144 109.423C88.1242 107.13 85.2022 105.77 82.1023 105.647ZM147.638 125.227C143.281 125.227 139.749 121.695 139.749 117.339C139.749 112.982 143.281 109.451 147.638 109.451C151.994 109.451 155.526 112.982 155.526 117.339C155.521 121.693 151.992 125.223 147.638 125.227ZM164.583 115.129H159.137C158.099 109.597 153.267 105.587 147.638 105.587C142.008 105.587 137.176 109.597 136.138 115.129H132.153V71.7305H139.433C140.61 71.7445 141.776 71.9541 142.883 72.3509V87.6158C142.913 89.9249 144.801 91.7766 147.111 91.7608H163.796C164.297 93.0984 164.563 94.5123 164.583 95.9403V115.129Z" fill="#3284FF"/>
<path d="M71.9586 69.2148C72.3116 69.5883 72.7969 69.8063 73.3092 69.8231H73.3139C73.8253 69.8072 74.3096 69.5911 74.6627 69.2223L86.402 57.4616C87.1509 56.7164 87.1546 55.5055 86.4103 54.7556C85.6652 54.0058 84.4533 54.003 83.7035 54.7473L73.3204 65.1285L68.7283 60.4898C67.9878 59.7409 66.7797 59.7353 66.0308 60.4758C65.2819 61.2256 65.2763 62.4384 66.0177 63.1947L71.9586 69.2148Z" fill="#3284FF"/>
</g>
</svg>
