<svg width="152" height="134" viewBox="0 0 152 134" fill="none" xmlns="http://www.w3.org/2000/svg">
<circle opacity="0.08" cx="63.2151" cy="62.8936" r="62.5" fill="#3284FF"/>
<g opacity="0.3">
<path d="M138.939 43.1566H112.794V37.1362C112.794 31.5287 108.26 26.8347 102.653 26.8347H78.1433C72.4783 26.8922 67.8993 31.4712 67.8418 37.1362V43.1566H41.6971C34.6158 43.1566 28.7762 48.8896 28.7762 55.9719V120.351C28.7762 127.435 34.6158 133.328 41.6971 133.328H138.939C146.02 133.328 151.859 127.435 151.859 120.351V55.9719C151.859 48.8896 146.02 43.1566 138.939 43.1566ZM72.123 37.1362C72.1784 33.8344 74.8415 31.1713 78.1433 31.1159H102.653C105.899 31.1159 108.513 33.8898 108.513 37.1362V43.1566H72.123V37.1362ZM147.311 120.485C147.311 125.214 143.477 129.047 138.748 129.047H41.6197C36.8912 129.047 33.0574 125.214 33.0574 120.485V56.0001C33.0574 51.2716 36.8912 47.4378 41.6197 47.4378H138.748C143.477 47.4378 147.311 51.2716 147.311 56.0001V120.485Z" fill="#3284FF"/>
<path d="M90.3178 68.8359C78.484 68.8485 68.8932 78.4393 68.8796 90.2731C68.8796 91.3496 69.6782 92.2579 70.7464 92.3969C71.8135 92.5349 72.8169 91.8587 73.0908 90.8176C73.2674 90.1466 73.6667 89.1631 73.9395 88.8297C74.4579 88.3489 75.1373 88.0781 75.8449 88.0719C76.5493 88.0656 77.2277 88.3321 77.7398 88.8161C78.2394 89.3387 78.5216 90.0327 78.529 90.756C78.529 91.9381 79.4874 92.8965 80.6695 92.8965C81.8517 92.8965 82.8101 91.9381 82.8101 90.756C82.7934 90.039 83.0704 89.347 83.5773 88.8401C84.0842 88.3332 84.7772 88.0552 85.4932 88.0719C86.1976 88.0656 86.877 88.3321 87.3881 88.8161C87.8877 89.3387 88.1699 90.0327 88.1772 90.756V105.236C88.1772 105.535 87.9358 105.777 87.6379 105.777C87.339 105.777 87.0975 105.535 87.0975 105.236C87.0975 104.054 86.1391 103.096 84.957 103.096C83.7748 103.096 82.8164 104.054 82.8164 105.236C82.8164 107.899 84.9747 110.058 87.6379 110.058C90.3001 110.058 92.4584 107.899 92.4584 105.236V90.756C92.4417 90.039 92.7197 89.347 93.2266 88.8401C93.7325 88.3332 94.4255 88.0552 95.1414 88.0719C95.8459 88.0656 96.5253 88.3321 97.0364 88.8161C97.536 89.3397 97.8182 90.0327 97.8255 90.756C97.8255 91.9381 98.784 92.8965 99.9661 92.8965C101.148 92.8965 102.107 91.9381 102.107 90.756C102.09 90.039 102.368 89.347 102.875 88.8401C103.382 88.3332 104.074 88.0552 104.791 88.0719C105.492 88.0656 106.168 88.3311 106.679 88.8108C106.952 89.1244 107.358 90.1173 107.545 90.8176C107.819 91.8587 108.822 92.5349 109.889 92.3969C110.956 92.2579 111.756 91.3496 111.755 90.2731C111.742 78.4393 102.152 68.8485 90.3178 68.8359ZM104.791 83.7907C103.001 83.798 101.28 84.4785 99.9682 85.6961C98.6606 84.4701 96.935 83.7876 95.1414 83.7907C93.3521 83.798 91.6306 84.4785 90.3199 85.6961C89.0124 84.4701 87.2857 83.7886 85.4932 83.7907C83.7038 83.798 81.9823 84.4785 80.6706 85.6961C79.3641 84.4701 77.6374 83.7886 75.8449 83.7907C75.3484 83.7907 74.854 83.844 74.3691 83.9485C76.9612 77.4108 83.2826 73.1171 90.3157 73.116C97.35 73.116 103.671 77.4087 106.266 83.9465C105.781 83.843 105.286 83.7907 104.791 83.7907Z" fill="#3284FF"/>
<path d="M90.3177 58.124C73.0185 58.124 58.995 72.1475 58.995 89.4467C58.995 106.746 73.0185 120.769 90.3177 120.769C107.617 120.769 121.64 106.746 121.64 89.4467C121.62 72.1559 107.608 58.1439 90.3177 58.124ZM90.3177 116.488C75.3828 116.488 63.2762 104.382 63.2762 89.4467C63.2762 74.5118 75.3828 62.4052 90.3177 62.4052C105.253 62.4052 117.359 74.5118 117.359 89.4467C117.342 104.374 105.245 116.472 90.3177 116.488Z" fill="#3284FF"/>
</g>
</svg>
