<svg width="126" height="130" viewBox="0 0 126 130" fill="none" xmlns="http://www.w3.org/2000/svg">
<g opacity="0.3">
<path d="M122.219 54.7058C122.219 54.686 122.199 54.6464 122.199 54.6265C122.199 54.5869 122.18 54.5671 122.18 54.5275C122.18 54.5077 122.16 54.4681 122.16 54.4483C122.16 54.4284 122.14 54.3888 122.12 54.369C122.1 54.3492 122.1 54.3096 122.081 54.2898C122.061 54.27 122.061 54.2303 122.041 54.2105C122.021 54.1907 122.021 54.1511 122.001 54.1313C121.982 54.0917 121.962 54.0521 121.922 54.0124C121.902 53.9926 121.902 53.9728 121.882 53.953C121.863 53.9134 121.823 53.8738 121.803 53.854L105.5 33.6245C105.461 33.5651 105.401 33.5255 105.362 33.4661C105.342 33.4463 105.342 33.4463 105.322 33.4463C105.282 33.4066 105.243 33.367 105.203 33.3274C105.183 33.3076 105.163 33.3076 105.144 33.2878C105.104 33.268 105.064 33.2284 105.025 33.2085C105.005 33.1887 104.985 33.1887 104.965 33.1689C104.926 33.1491 104.886 33.1293 104.847 33.1095C104.827 33.0897 104.807 33.0897 104.787 33.0699C104.747 33.0501 104.708 33.0303 104.648 33.0105C104.629 33.0105 104.609 32.9906 104.589 32.9906C104.549 32.9708 104.49 32.9708 104.45 32.951C104.431 32.951 104.411 32.9312 104.391 32.9312C104.331 32.9114 104.292 32.9114 104.232 32.9114C104.213 32.9114 104.193 32.9114 104.173 32.9114C104.094 32.9114 104.034 32.8916 103.955 32.8916H51.2228C50.1333 32.8916 49.2418 33.7832 49.2418 34.8729V43.0161H43.0019C41.9124 43.0161 41.021 43.9077 41.021 44.9974V127.579C41.021 128.669 41.9124 129.561 43.0019 129.561H112.176C113.265 129.561 114.157 128.669 114.157 127.579V119.436H120.258C121.348 119.436 122.239 118.544 122.239 117.455V55.0822C122.239 55.0227 122.239 54.9633 122.239 54.9039C122.239 54.8841 122.239 54.8643 122.239 54.8246C122.239 54.785 122.239 54.7454 122.219 54.7058ZM105.936 40.4599L116.118 53.1008H105.936V40.4599ZM102.549 56.3501L108.016 63.0867H97.8538V50.5646L102.291 56.0332C102.37 56.1521 102.45 56.2511 102.549 56.3501ZM53.2037 36.834H101.974V49.3363L97.418 43.7291C97.3784 43.6696 97.319 43.63 97.2794 43.5706C97.2595 43.5508 97.2595 43.5508 97.2397 43.531C97.2001 43.4913 97.1605 43.4715 97.1209 43.4319C97.1011 43.4121 97.0813 43.4121 97.0614 43.3923C97.0218 43.3725 96.9822 43.3329 96.9426 43.3131C96.9228 43.2933 96.903 43.2933 96.8832 43.2734C96.8435 43.2536 96.8039 43.2338 96.7643 43.214C96.7445 43.1942 96.7247 43.1942 96.7049 43.1942C96.6653 43.1744 96.6058 43.1546 96.5662 43.1348C96.5464 43.1348 96.5266 43.115 96.5068 43.115C96.4672 43.0952 96.4077 43.0952 96.3681 43.0754C96.3483 43.0754 96.3285 43.0555 96.3087 43.0555C96.2493 43.0357 96.2096 43.0357 96.1502 43.0357C96.1304 43.0357 96.1106 43.0357 96.0908 43.0357C96.0116 43.0357 95.9521 43.0159 95.8729 43.0159H53.2037V36.834ZM44.9829 125.598V46.9588H93.892V65.0682C93.892 66.1579 94.7834 67.0495 95.8729 67.0495H110.195V125.598H44.9829V125.598ZM118.277 115.493H114.157V115.473V65.0482C114.157 64.9888 114.157 64.9294 114.157 64.8699C114.157 64.8501 114.157 64.8303 114.157 64.7907C114.157 64.7511 114.157 64.7115 114.137 64.6718C114.137 64.652 114.117 64.6124 114.117 64.5926C114.117 64.553 114.097 64.5332 114.097 64.4935C114.097 64.4539 114.078 64.4341 114.078 64.4143C114.078 64.3945 114.058 64.3549 114.038 64.3351C114.018 64.3153 114.018 64.2756 113.998 64.2558C113.979 64.236 113.979 64.1964 113.959 64.1766C113.939 64.1568 113.939 64.1172 113.919 64.0974C113.899 64.0577 113.88 64.0181 113.86 63.9983C113.84 63.9785 113.84 63.9587 113.82 63.9587C113.78 63.9191 113.761 63.8596 113.721 63.82L108.254 57.0835H118.277V115.493Z" fill="#3284FF"/>
<path d="M97.8537 75.1531H57.3239C56.2344 75.1531 55.343 76.0447 55.343 77.1344C55.343 78.2241 56.2344 79.1157 57.3239 79.1157H97.8537C98.9432 79.1157 99.8347 78.2241 99.8347 77.1344C99.8347 76.0447 98.9432 75.1531 97.8537 75.1531Z" fill="#3284FF"/>
<path d="M97.8537 87.239H57.3239C56.2344 87.239 55.343 88.1306 55.343 89.2203C55.343 90.3101 56.2344 91.2017 57.3239 91.2017H97.8537C98.9432 91.2017 99.8347 90.3101 99.8347 89.2203C99.8347 88.1306 98.9432 87.239 97.8537 87.239Z" fill="#3284FF"/>
<path d="M97.8537 99.3254H57.3239C56.2344 99.3254 55.343 100.217 55.343 101.307C55.343 102.396 56.2344 103.288 57.3239 103.288H97.8537C98.9432 103.288 99.8347 102.396 99.8347 101.307C99.8347 100.217 98.9432 99.3254 97.8537 99.3254Z" fill="#3284FF"/>
<path d="M97.8537 111.411H57.3239C56.2344 111.411 55.343 112.303 55.343 113.393C55.343 114.482 56.2344 115.374 57.3239 115.374H97.8537C98.9432 115.374 99.8347 114.482 99.8347 113.393C99.8347 112.303 98.9432 111.411 97.8537 111.411Z" fill="#3284FF"/>
</g>
<circle opacity="0.08" cx="62.5688" cy="62.6614" r="62.5" fill="#3284FF"/>
</svg>
