<svg width="23" height="17" viewBox="0 0 23 17" fill="none" xmlns="http://www.w3.org/2000/svg">
<path opacity="0.5" d="M5.82573 0.318924C7.37239 0.318924 8.63906 0.785591 9.62573 1.71893C10.6124 2.65226 11.1057 3.89226 11.1057 5.43893C11.1057 6.13226 11.0124 6.82559 10.8257 7.51892C10.6391 8.21226 10.2124 9.26559 9.54573 10.6789L6.74573 16.6389H1.14573L3.14573 9.87893C2.31906 9.47893 1.67906 8.90559 1.22573 8.15892C0.772394 7.38559 0.545728 6.47892 0.545728 5.43893C0.545728 3.89226 1.03906 2.65226 2.02573 1.71893C3.01239 0.785591 4.27906 0.318924 5.82573 0.318924ZM17.4257 0.318924C18.9724 0.318924 20.2391 0.785591 21.2257 1.71893C22.2124 2.65226 22.7057 3.89226 22.7057 5.43893C22.7057 6.13226 22.6124 6.82559 22.4257 7.51892C22.2391 8.21226 21.8124 9.26559 21.1457 10.6789L18.3457 16.6389H12.7457L14.7457 9.87893C13.9191 9.47893 13.2791 8.90559 12.8257 8.15892C12.3724 7.38559 12.1457 6.47892 12.1457 5.43893C12.1457 3.89226 12.6391 2.65226 13.6257 1.71893C14.6124 0.785591 15.8791 0.318924 17.4257 0.318924Z" fill="#fff"/>
</svg>
