<svg width="35" height="49" viewBox="0 0 35 49" fill="none" xmlns="http://www.w3.org/2000/svg">
<g opacity="0.9">
<path d="M11.1132 20.3125H17.3067V21.8609H11.1132V20.3125Z" fill="#3284FF"/>
<path d="M11.1132 23.4092H17.3067V24.9576H11.1132V23.4092Z" fill="#3284FF"/>
<path d="M11.1132 26.5063H17.3067V28.0547H11.1132V26.5063Z" fill="#3284FF"/>
<path d="M21.9519 20.3125H28.1455V21.8609H21.9519V20.3125Z" fill="#3284FF"/>
<path d="M21.9519 23.4092H28.1455V24.9576H21.9519V23.4092Z" fill="#3284FF"/>
<path d="M21.9519 26.5063H28.1455V28.0547H21.9519V26.5063Z" fill="#3284FF"/>
<path d="M33.5649 17.9899H31.2423V15.6673C31.2423 15.4427 31.1448 15.2299 30.9751 15.0821C30.8057 14.9358 30.5797 14.8681 30.3581 14.9007L19.6294 16.4339L8.9006 14.9007C8.67983 14.8681 8.45302 14.9358 8.28366 15.0821C8.11393 15.2299 8.0164 15.4427 8.0164 15.6673V17.9899H5.6938C5.2655 17.9899 4.9196 18.3358 4.9196 18.7641V35.7964C4.9196 36.2248 5.2655 36.5706 5.6938 36.5706H25.0488V45.0868C25.0488 46.3672 24.0065 47.4094 22.7262 47.4094H21.952V46.6352C21.952 45.3549 20.9097 44.3126 19.6294 44.3126H7.2422C5.96182 44.3126 4.9196 45.3549 4.9196 46.6352V47.4094H4.14541C2.86503 47.4094 1.82281 46.3672 1.82281 45.0868V4.82851C1.82281 3.87021 2.40648 3.04649 3.23663 2.69191L7.46902 6.92429C7.6138 7.06983 7.81037 7.15111 8.0164 7.15111H18.8552C19.0612 7.15111 19.2578 7.06983 19.4026 6.92429L23.6349 2.69191C24.4651 3.04649 25.0488 3.87021 25.0488 4.82851V14.1189H26.5972V4.82851C26.5972 2.69417 24.8605 0.95752 22.7262 0.95752H4.14541C2.01107 0.95752 0.274414 2.69417 0.274414 4.82851V45.0868C0.274414 47.2212 2.01107 48.9578 4.14541 48.9578H22.7262C24.8605 48.9578 26.5972 47.2212 26.5972 45.0868V36.5706H33.5649C33.9932 36.5706 34.3391 36.2248 34.3391 35.7964V18.7641C34.3391 18.3358 33.9932 17.9899 33.5649 17.9899ZM18.5346 5.60271H8.33696L5.24017 2.50592H21.6314L18.5346 5.60271ZM6.468 46.6352C6.468 46.2081 6.81503 45.861 7.2422 45.861H19.6294C20.0565 45.861 20.4036 46.2081 20.4036 46.6352V47.4094H6.468V46.6352ZM20.4036 17.8871L29.694 16.5598V30.4791L20.4036 31.8064V17.8871ZM9.56479 16.5598L18.8552 17.8871V31.8064L9.56479 30.4791V16.5598ZM32.7907 35.0223H6.468V19.5383H8.0164V31.1513C8.0164 31.5368 8.29992 31.8635 8.68059 31.9179L19.5194 33.4663C19.5557 33.4716 19.5931 33.4739 19.6294 33.4739C19.6657 33.4739 19.7031 33.4716 19.7394 33.4663L30.5782 31.9179C30.9588 31.8635 31.2423 31.5368 31.2423 31.1513V19.5383H32.7907V35.0223Z" fill="#3284FF"/>
</g>
</svg>
