<svg width="64" height="44" viewBox="0 0 64 44" fill="none" xmlns="http://www.w3.org/2000/svg">
<g opacity="0.9">
<path d="M16.4181 10.913L16.4184 10.913C20.6971 10.8652 24.9665 10.5038 29.1924 9.83176C29.2715 9.81537 29.3525 9.80984 29.4331 9.81534M16.4181 10.913L29.43 9.86525M16.4181 10.913C16.1734 10.9172 15.9405 11.0185 15.7705 11.1946C15.6005 11.3706 15.5074 11.607 15.5117 11.8517C15.5159 12.0964 15.6173 12.3293 15.7933 12.4993C15.8805 12.5835 15.9834 12.6497 16.0961 12.6941C16.2087 12.7384 16.3289 12.7602 16.4499 12.7581M16.4181 10.913L16.4495 12.7081M29.4331 9.81534C29.4332 9.81535 29.4333 9.81535 29.4334 9.81536L29.43 9.86525M29.4331 9.81534C29.4329 9.81533 29.4328 9.81532 29.4327 9.81532L29.43 9.86525M29.4331 9.81534C30.5013 9.87189 31.5377 10.1987 32.4451 10.7652L32.4481 10.7671L32.448 10.7672C32.6052 10.8814 32.7223 11.0423 32.7827 11.227C32.843 11.4117 32.8435 11.6107 32.7841 11.7957C32.7247 11.9807 32.6084 12.1422 32.4518 12.2572C32.2952 12.3722 32.1063 12.4348 31.912 12.4361L31.9116 12.4361C31.696 12.4361 31.4869 12.3626 31.3188 12.2277M29.43 9.86525C30.4899 9.9213 31.5183 10.2456 32.4186 10.8076C32.5673 10.9156 32.6781 11.0678 32.7351 11.2425C32.7922 11.4172 32.7927 11.6054 32.7365 11.7804C32.6803 11.9554 32.5703 12.1081 32.4222 12.2169C32.2741 12.3257 32.0954 12.3849 31.9116 12.3861C31.7061 12.3861 31.5069 12.3156 31.3471 12.1863M31.3188 12.2277C31.32 12.2284 31.3211 12.229 31.3222 12.2297L31.3471 12.1863M31.3188 12.2277C31.3178 12.2269 31.3167 12.226 31.3156 12.2252L31.3471 12.1863M31.3188 12.2277C30.7397 11.8965 30.0916 11.7045 29.4255 11.6667M31.3471 12.1863C30.7588 11.8492 30.1 11.6541 29.423 11.6165M29.423 11.6165L29.4308 11.6659C29.429 11.6662 29.4273 11.6665 29.4255 11.6667M29.423 11.6165C25.1378 12.2898 20.8097 12.6546 16.4722 12.7081H16.4495M29.423 11.6165L29.4203 11.6664C29.422 11.6665 29.4238 11.6666 29.4255 11.6667M29.4255 11.6667C25.1396 12.3399 20.8109 12.7046 16.4728 12.7581L16.4722 12.7581V12.7581H16.4499M16.4499 12.7581C16.4501 12.7581 16.4502 12.7581 16.4504 12.7581L16.4495 12.7081M16.4499 12.7581H16.4495V12.7081" fill="#3284FF" stroke="#2E2E2E" stroke-width="0.1"/>
<path d="M37.4738 24.2171L37.474 24.2172L47.0854 31.148L37.4738 24.2171ZM37.4738 24.2171L36.7766 23.7203C36.7764 23.7202 36.7763 23.7201 36.7761 23.72C36.6778 23.6468 36.5659 23.594 36.4469 23.5646C36.3277 23.5352 36.2038 23.5298 36.0826 23.5488C35.9613 23.5678 35.845 23.6109 35.7406 23.6754C35.6362 23.7399 35.5457 23.8246 35.4744 23.9246C35.4031 24.0245 35.3525 24.1377 35.3255 24.2574C35.2986 24.3772 35.2957 24.5011 35.3173 24.622C35.3388 24.7428 35.3842 24.8582 35.4509 24.9612C35.5174 25.0641 35.6038 25.1527 35.7049 25.2219C35.7051 25.222 35.7053 25.2221 35.7055 25.2223L45.9726 32.6162C46.0118 32.6543 46.0537 32.6882 46.0804 32.7064C46.0805 32.7064 46.0805 32.7064 46.0806 32.7065L46.2668 32.8356C46.267 32.8357 46.2672 32.8358 46.2673 32.8359C46.8781 33.2795 47.6137 33.5179 48.3686 33.517M37.4738 24.2171L26.0161 15.6828M47.3335 31.3309L47.3341 31.3313C47.7021 31.5951 48.1574 31.7076 48.606 31.6455C49.0546 31.5835 49.4622 31.3516 49.7449 30.9978C49.9181 30.7791 50.0362 30.5219 50.0892 30.248C50.1422 29.974 50.1285 29.6913 50.0493 29.4237L50.0491 29.4231C49.9539 29.0862 49.757 28.7869 49.4854 28.5661L49.4854 28.5661L35.7731 17.3944C30.509 20.1758 26.7735 18.7386 24.9853 17.5959L24.985 17.5956C24.6836 17.3995 24.4389 17.1278 24.2753 16.8076C24.1117 16.4874 24.0349 16.1299 24.0526 15.7708C24.0702 15.4116 24.1817 15.0634 24.3759 14.7608C24.5701 14.4582 24.8401 14.2118 25.1592 14.0462C25.1592 14.0462 25.1593 14.0461 25.1594 14.0461L33.0226 9.87013L33.0229 9.86999C33.5307 9.60435 34.086 9.44185 34.6569 9.39185C35.2278 9.34185 35.8029 9.40535 36.3491 9.57868L36.3494 9.57878L41.0011 11.0883L41.0013 11.0884C42.3595 11.5351 43.8326 11.482 45.1551 10.9387L45.1551 10.9387L47.1813 10.1089C47.1813 10.1089 47.1813 10.1089 47.1813 10.1089C47.2934 10.0629 47.4135 10.0394 47.5347 10.0399C47.6558 10.0403 47.7758 10.0646 47.8876 10.1114C47.9994 10.1582 48.1008 10.2265 48.1862 10.3125C48.2716 10.3985 48.3392 10.5005 48.3852 10.6126C48.4312 10.7247 48.4546 10.8448 48.4542 10.966C48.4538 11.0872 48.4295 11.2071 48.3827 11.3189C48.3359 11.4307 48.2676 11.5322 48.1816 11.6176C48.0956 11.7029 47.9936 11.7706 47.8815 11.8165L47.8815 11.8165L45.8572 12.6455L47.3335 31.3309ZM47.3335 31.3309L47.1697 31.2169M47.3335 31.3309L47.1697 31.2169M26.0161 15.6828L26.0161 15.6828C25.9807 15.6995 25.9506 15.7257 25.9291 15.7584C25.9077 15.7912 25.8958 15.8293 25.8947 15.8684L25.8946 15.8712L25.8945 15.8712C25.8917 15.9058 25.8984 15.9405 25.914 15.9715C25.9295 16.0026 25.9534 16.0287 25.9828 16.0471L25.9833 16.0474C26.8931 16.6288 28.1288 17.1327 29.6967 17.1701C31.2645 17.2075 33.1678 16.7784 35.4129 15.4886C35.5749 15.3956 35.7612 15.3539 35.9474 15.369C36.1335 15.3842 36.3107 15.4555 36.4554 15.5735C36.4554 15.5735 36.4554 15.5735 36.4554 15.5735L50.6434 27.135C50.6435 27.1351 50.6435 27.1351 50.6435 27.1351C51.2079 27.5904 51.6182 28.2085 51.8189 28.9053C51.9777 29.4535 52.0045 30.0316 51.8968 30.5922C51.7891 31.1528 51.5502 31.68 51.1995 32.1304C50.8653 32.5629 50.4363 32.9128 49.9455 33.1532C49.4547 33.3936 48.9151 33.5181 48.3686 33.517M26.0161 15.6828L26.0182 15.6817M26.0161 15.6828L26.0182 15.6817M48.3686 33.517C48.3686 33.517 48.3685 33.517 48.3685 33.517L48.3686 33.467L48.3687 33.517C48.3686 33.517 48.3686 33.517 48.3686 33.517ZM26.0182 15.6817L33.8835 11.5048C34.173 11.3525 34.4897 11.259 34.8154 11.2297C35.1411 11.2003 35.4693 11.2357 35.7813 11.3336C35.7813 11.3336 35.7814 11.3337 35.7815 11.3337L40.4282 12.8422M26.0182 15.6817L40.4282 12.8422M47.1697 31.2169C47.1431 31.1922 47.115 31.1693 47.0855 31.1481L47.1697 31.2169ZM40.4282 12.8422C42.2033 13.4266 44.1289 13.3568 45.8571 12.6455L40.4282 12.8422Z" fill="#3284FF" stroke="#2E2E2E" stroke-width="0.1"/>
<path d="M33.2319 30.2022L33.2326 30.2027L42.6652 36.8954C42.6652 36.8954 42.6652 36.8954 42.6652 36.8954C43.2681 37.3236 43.9878 37.556 44.7268 37.5616L44.7278 37.5635L44.7587 37.5634C45.525 37.5626 46.2713 37.3192 46.8907 36.868C47.51 36.4169 47.9706 35.7812 48.2064 35.0521C48.4422 34.323 48.4411 33.538 48.2032 32.8096C47.9653 32.0812 47.5028 31.4469 46.8822 30.9975L46.8821 30.9974L37.4783 24.221L37.4783 24.2209L37.4759 24.2194C37.2771 24.0928 37.0374 24.0471 36.806 24.0916C36.5746 24.1362 36.3691 24.2676 36.2315 24.4589C36.0938 24.6502 36.0347 24.8869 36.066 25.1204C36.0974 25.354 36.217 25.5667 36.4002 25.7149L36.4001 25.7149L36.4024 25.7165L45.8028 32.4916C46.1649 32.7744 46.4039 33.1861 46.4697 33.6408C46.5357 34.0958 46.4232 34.5587 46.1559 34.9328C45.8885 35.3069 45.487 35.5632 45.0351 35.6481C44.5835 35.733 44.1166 35.6403 43.7319 35.3892L34.3 28.698L34.3 28.698L34.2993 28.6975C34.0996 28.5609 33.8543 28.5083 33.6161 28.5509C33.378 28.5935 33.1661 28.7279 33.0261 28.9253C32.8861 29.1226 32.8293 29.367 32.8678 29.6058C32.9063 29.8447 33.037 30.0588 33.2319 30.2022Z" fill="#3284FF" stroke="#2E2E2E" stroke-width="0.1"/>
<path d="M31.2909 33.0596L31.2909 33.0596L39.7436 38.9146C39.9238 39.0392 40.1268 39.1272 40.341 39.1733C40.5552 39.2195 40.7764 39.223 40.992 39.1837C41.2076 39.1444 41.4133 39.0629 41.5974 38.9441C41.7814 38.8252 41.9403 38.6713 42.0648 38.4911C42.3128 38.1296 42.409 37.6853 42.333 37.2536C42.257 36.822 42.0147 36.4373 41.6581 36.1823C41.6581 36.1823 41.6581 36.1823 41.6581 36.1823L33.2473 30.2162C33.2472 30.2161 33.247 30.216 33.2469 30.2159C33.146 30.1468 33.0598 30.0583 32.9933 29.9556C32.9268 29.8527 32.8814 29.7377 32.8599 29.6171C32.8383 29.4965 32.8409 29.3728 32.8677 29.2533C32.8944 29.1338 32.9447 29.0207 33.0155 28.9208C33.0864 28.8209 33.1765 28.7361 33.2805 28.6714C33.3845 28.6066 33.5003 28.5633 33.6212 28.5438C33.7422 28.5243 33.8658 28.5291 33.9848 28.5579C34.1038 28.5866 34.2158 28.6387 34.3144 28.7112C34.3145 28.7113 34.3146 28.7114 34.3147 28.7115L42.7257 34.6777L42.7258 34.6778C43.4769 35.2145 43.9875 36.0245 44.1478 36.9336C44.3082 37.8427 44.1056 38.7785 43.5835 39.5398C43.3226 39.9204 42.9889 40.2454 42.6015 40.4961C42.2142 40.7468 41.7811 40.9183 41.3271 41.0005C41.327 41.0005 41.327 41.0005 41.327 41.0005L31.2909 33.0596ZM31.2909 33.0596C31.0897 32.9202 30.8413 32.8665 30.6005 32.9103C30.3596 32.9541 30.1461 33.0917 30.0067 33.293C29.8674 33.4942 29.8137 33.7426 29.8575 33.9834C29.9012 34.2242 30.0389 34.4378 30.2401 34.5772C30.2401 34.5772 30.2401 34.5772 30.2401 34.5772L38.6927 40.4321L31.2909 33.0596ZM40.6855 41.058L40.6855 41.008L38.6928 40.4322C39.2775 40.8394 39.9729 41.0578 40.6854 41.058C40.6854 41.058 40.6854 41.058 40.6855 41.058Z" fill="#3284FF" stroke="#2E2E2E" stroke-width="0.1"/>
<path d="M35.6993 43.9268C35.6994 43.9268 35.6995 43.9268 35.6996 43.9268C36.45 43.9254 37.1804 43.6845 37.7844 43.2392C38.3887 42.7938 38.8349 42.167 39.0582 41.4503C39.2814 40.7336 39.27 39.9643 39.0255 39.2545C38.7811 38.5447 38.3164 37.9315 37.6992 37.5042C37.6992 37.5042 37.6992 37.5042 37.6992 37.5042L31.7054 33.3525L35.6993 43.9268ZM35.6993 43.9268L35.6988 43.9268L35.6993 43.9268ZM33.9373 43.4472C34.4724 43.7583 35.0797 43.9237 35.6987 43.9268L31.7054 33.3525C31.6059 33.2835 31.4936 33.2348 31.3752 33.2092C31.2568 33.1835 31.1345 33.1815 31.0153 33.2031C30.8961 33.2247 30.7823 33.2696 30.6805 33.3352C30.5786 33.4008 30.4907 33.4859 30.4217 33.5855C30.3527 33.685 30.304 33.7973 30.2783 33.9157C30.2527 34.0341 30.2506 34.1564 30.2723 34.2756C30.2939 34.3948 30.3388 34.5086 30.4044 34.6104C30.47 34.7123 30.555 34.8002 30.6546 34.8692L30.6546 34.8692L36.6493 39.0218L36.6497 39.0221C36.9997 39.2593 37.246 39.6211 37.3384 40.0337C37.4308 40.4462 37.3623 40.8784 37.147 41.2421C36.9202 41.6219 36.5538 41.8979 36.1263 42.0113C35.6988 42.1246 35.2439 42.0664 34.8588 41.8491C34.8587 41.8491 34.8586 41.849 34.8585 41.849L30.1679 39.1442L30.1677 39.1441C29.9559 39.0237 29.7051 38.9919 29.47 39.0557C29.2349 39.1196 29.0345 39.2738 28.9127 39.4848C28.7909 39.6958 28.7575 39.9464 28.8198 40.1819C28.882 40.4174 29.0349 40.6188 29.2451 40.742L29.2454 40.7422L33.9371 43.4471C33.9372 43.4471 33.9372 43.4471 33.9373 43.4472Z" fill="#3284FF" stroke="#2E2E2E" stroke-width="0.1"/>
<path d="M23.4687 37.1728L23.4687 37.1728L25.7994 35.131L23.4687 37.1728ZM23.4687 37.1728C22.9243 37.65 22.5384 38.2821 22.3626 38.9845C22.1868 39.6868 22.2295 40.4261 22.485 41.1036C22.7405 41.781 23.1966 42.3644 23.7924 42.7758C24.3881 43.1872 25.0952 43.407 25.8192 43.406M23.4687 37.1728L30.8227 35.4575M30.8227 35.4575L30.8227 35.4575C31.1311 35.8089 31.3672 36.2175 31.5176 36.6601C31.668 37.1027 31.7298 37.5706 31.6994 38.037C31.669 38.5035 31.547 38.9594 31.3404 39.3787C31.1338 39.798 30.8466 40.1725 30.4953 40.4809L28.1646 42.5271L28.1646 42.5271C27.5157 43.0956 26.6819 43.4081 25.8192 43.406M30.8227 35.4575C30.5143 35.1063 30.1397 34.8192 29.7204 34.6126C29.3011 34.4061 28.8451 34.2842 28.3787 34.2539C27.9122 34.2236 27.4443 34.2854 27.0018 34.4359C26.5593 34.5864 26.1507 34.8226 25.7994 35.1309L30.8227 35.4575ZM25.8192 43.406C25.8192 43.406 25.8192 43.406 25.8191 43.406L25.8193 43.356L25.8193 43.406C25.8193 43.406 25.8193 43.406 25.8192 43.406ZM28.1464 36.0911L28.1463 36.0911C27.7306 36.09 27.3287 36.2408 27.0163 36.515L27.0163 36.515L24.6847 38.5595C24.6847 38.5595 24.6847 38.5595 24.6847 38.5595C24.5155 38.7079 24.3772 38.8883 24.2776 39.0902C24.1781 39.2922 24.1193 39.5117 24.1046 39.7364C24.0899 39.961 24.1196 40.1864 24.192 40.3996C24.2644 40.6127 24.3781 40.8096 24.5266 40.9788C24.8265 41.3206 25.2498 41.5293 25.7035 41.5589C25.9282 41.5736 26.1535 41.5439 26.3667 41.4715C26.5799 41.3991 26.7767 41.2854 26.9459 41.1369C26.9459 41.1369 26.946 41.1369 26.946 41.1369L29.2766 39.0908L28.1464 36.0911ZM28.1464 36.0911C28.4944 36.0915 28.834 36.1979 29.1201 36.3961C29.4062 36.5942 29.6252 36.8748 29.7479 37.2005C29.8706 37.5261 29.8912 37.8815 29.807 38.2191C29.7228 38.5568 29.5378 38.8608 29.2766 39.0907L28.1464 36.0911Z" fill="#3284FF" stroke="#2E2E2E" stroke-width="0.1"/>
<path d="M17.8938 39.7853L17.8564 39.8185C17.8564 39.8185 17.8563 39.8184 17.8563 39.8184C17.5437 39.4671 17.3037 39.0575 17.1498 38.6132C16.9959 38.1688 16.9313 37.6984 16.9597 37.229C16.988 36.7595 17.1088 36.3004 17.3151 35.8777C17.5214 35.4551 17.8091 35.0774 18.1617 34.7662L18.1618 34.7662L22.0553 31.3483C22.4066 31.0399 22.8151 30.8037 23.2577 30.6532C23.7002 30.5027 24.1681 30.4408 24.6346 30.4712C25.101 30.5015 25.557 30.6234 25.9763 30.8299C26.3956 31.0364 26.7702 31.3235 27.0786 31.6748L27.1102 31.7108L27.1097 31.7112L22.8796 40.1448C22.2329 40.7158 21.3995 41.0303 20.5367 41.029M17.8938 39.7853C18.1972 40.1325 18.5664 40.4161 18.9801 40.6198C19.3937 40.8235 19.8436 40.9432 20.3038 40.972M17.8938 39.7853C17.5856 39.4389 17.3488 39.035 17.1971 38.5968C17.0453 38.1586 16.9816 37.6948 17.0096 37.232C17.0376 36.7691 17.1567 36.3164 17.36 35.8997C17.5634 35.483 17.8471 35.1105 18.1948 34.8037L17.8938 39.7853ZM20.3038 40.972L20.2994 41.0218C20.2996 41.0218 20.2998 41.0218 20.3 41.0219C20.3003 41.0219 20.3005 41.0219 20.3007 41.0219L20.3038 40.972ZM20.3038 40.972C20.3815 40.979 20.4592 40.979 20.5368 40.979M20.5368 40.979L20.5367 41.029M20.5368 40.979V41.029H20.5367M20.5368 40.979L20.5367 41.029M23.2696 32.7322C23.5665 32.4711 23.9446 32.3219 24.3385 32.3093H24.3971C24.4355 32.3093 24.4756 32.3101 24.5158 32.3118C24.7395 32.3257 24.9582 32.3837 25.1594 32.4824C25.3607 32.5812 25.5405 32.7188 25.6885 32.8874L25.6885 32.8874L25.7138 32.9162C25.7138 32.9162 25.7138 32.9162 25.7138 32.9162C25.8624 33.0854 25.9761 33.2822 26.0486 33.4954C26.1211 33.7086 26.1509 33.934 26.1362 34.1587C26.1216 34.3834 26.0628 34.6031 25.9633 34.805C25.8637 35.007 25.7254 35.1874 25.5561 35.3359L25.5561 35.3359L21.6626 38.7538L21.6624 38.754C21.494 38.9036 21.2974 39.0182 21.0842 39.0909C20.871 39.1637 20.6454 39.1932 20.4207 39.1778C20.0802 39.1538 19.7542 39.0302 19.4834 38.8224C19.2126 38.6146 19.0089 38.3317 18.8976 38.009C18.7863 37.6862 18.7724 37.3379 18.8575 37.0073C18.9427 36.6768 19.1231 36.3787 19.3764 36.15C19.3765 36.1499 19.3765 36.1498 19.3766 36.1497L23.2696 32.7323L23.2696 32.7322Z" fill="#3284FF" stroke="#2E2E2E" stroke-width="0.1"/>
<path d="M13.4522 36.6141L13.4522 36.6141L13.3578 36.5015C13.3577 36.5014 13.3576 36.5012 13.3575 36.5011C12.7357 35.7916 12.4209 34.8642 12.4825 33.9228C12.5441 32.9811 12.977 32.1025 13.6862 31.4799L18.2 27.5176C18.5513 27.2091 18.9598 26.9728 19.4024 26.8222C19.845 26.6717 20.3129 26.6098 20.7794 26.6401C21.2459 26.6704 21.7018 26.7924 22.1212 26.999C22.5405 27.2056 22.9151 27.4928 23.2234 27.8441L23.2234 27.8442L23.322 27.9567L13.4522 36.6141ZM13.4522 36.6141L13.4529 36.6149M13.4522 36.6141L13.4529 36.6149M13.4529 36.6149C13.7607 36.9671 14.1352 37.2547 14.5548 37.4613C14.9742 37.6679 15.4303 37.7893 15.8968 37.8186M13.4529 36.6149L15.8968 37.8186M15.8968 37.8186C15.9774 37.8257 16.0566 37.8257 16.1326 37.8257H16.1335H16.1336V37.7757L15.8968 37.8186ZM20.5426 28.4786H20.5428C20.5805 28.4786 20.6174 28.4803 20.6572 28.4836L20.6572 28.4837L20.6583 28.4837C20.8828 28.4976 21.1023 28.5558 21.3041 28.6551C21.5059 28.7543 21.686 28.8926 21.8341 29.0618L21.9309 29.1726L21.931 29.1727C22.0795 29.342 22.1933 29.5388 22.2658 29.752C22.3383 29.9652 22.368 30.1906 22.3534 30.4153C22.3388 30.64 22.28 30.8596 22.1805 31.0616C22.0809 31.2636 21.9425 31.444 21.7733 31.5925L21.7733 31.5925L17.2594 35.5549C16.9178 35.8547 16.4712 36.0066 16.0177 35.9774C15.5641 35.9481 15.1407 35.7401 14.8405 35.3989L14.7419 35.2864L14.7419 35.2864C14.4419 34.9442 14.29 34.4969 14.3197 34.0428C14.3495 33.5887 14.5584 33.165 14.9005 32.8649L14.9005 32.8648L19.4143 28.9025L19.4144 28.9024C19.7262 28.6283 20.1274 28.4775 20.5426 28.4786ZM24.1977 30.5355C24.2593 29.5938 23.9443 28.6662 23.322 27.9567L18.4799 36.9406L22.9937 32.9783C22.9937 32.9783 22.9937 32.9783 22.9937 32.9783C23.703 32.3559 24.1361 31.4772 24.1977 30.5355Z" fill="#3284FF" stroke="#2E2E2E" stroke-width="0.1"/>
<path d="M12.3405 33.9421C13.2045 33.9442 14.0392 33.6296 14.6869 33.0578L17.5131 30.5772C17.8645 30.2688 18.1517 29.8943 18.3583 29.475C18.5649 29.0556 18.6868 28.5997 18.7171 28.1332C18.7475 27.6667 18.6856 27.1988 18.535 26.7562C18.3845 26.3136 18.1482 25.9051 17.8397 25.5538L17.8092 25.519L17.8091 25.5189C17.5008 25.1676 17.1263 24.8804 16.7069 24.6738C16.2876 24.4672 15.8316 24.3452 15.3651 24.3149C14.8986 24.2846 14.4307 24.3465 13.9882 24.497C13.5456 24.6476 13.137 24.8839 12.7858 25.1924C12.7858 25.1924 12.7858 25.1924 12.7858 25.1924L9.95952 27.6731L9.95942 27.6732C9.42837 28.1419 9.04818 28.7575 8.86691 29.4422C8.68564 30.1269 8.71142 30.85 8.94099 31.52C9.17056 32.1901 9.59362 32.7771 10.1567 33.2068C10.7195 33.6362 11.397 33.8893 12.1036 33.934C12.1834 33.9421 12.2638 33.9421 12.3395 33.9421H12.3405ZM12.3405 33.9421L12.3406 33.8921V33.9421H12.3405ZM14.0045 26.5764C14.3152 26.3031 14.7148 26.1525 15.1285 26.1525V26.1525C15.1531 26.1525 15.177 26.1532 15.2026 26.1539C15.217 26.1544 15.2319 26.1548 15.2477 26.1551C15.4721 26.1691 15.6914 26.2274 15.893 26.3266C16.095 26.426 16.2752 26.5645 16.4233 26.734L16.4233 26.734L16.4539 26.7689L16.4539 26.769C16.6025 26.9382 16.7163 27.1351 16.7887 27.3483C16.8612 27.5615 16.891 27.7868 16.8763 28.0116C16.8617 28.2363 16.8029 28.4559 16.7034 28.6579C16.6038 28.8599 16.4655 29.0403 16.2962 29.1888L16.2962 29.1888L13.4702 31.6693C13.4701 31.6693 13.4701 31.6694 13.4701 31.6694C13.2973 31.8189 13.0966 31.9326 12.8796 32.004C12.6625 32.0753 12.4334 32.1029 12.2056 32.0851C11.9778 32.0672 11.7558 32.0044 11.5524 31.9001C11.3491 31.7958 11.1685 31.6522 11.0211 31.4776L11.0211 31.4776L11.0205 31.4769C10.8719 31.3077 10.7581 31.1109 10.6856 30.8977C10.6132 30.6845 10.5834 30.4591 10.598 30.2344C10.6127 30.0097 10.6714 29.79 10.771 29.588C10.8705 29.3861 11.0089 29.2057 11.1782 29.0571L11.1782 29.0571L14.0045 26.5764L14.0045 26.5764Z" fill="#3284FF" stroke="#2E2E2E" stroke-width="0.1"/>
<path d="M10.2039 28.9363L10.2041 28.9365C10.3562 29.051 10.5399 29.1152 10.7298 29.1207L10.7342 29.1278L10.7618 29.128C10.9559 29.1292 11.1454 29.0691 11.3034 28.9563C11.4614 28.8435 11.5797 28.6838 11.6417 28.4998C11.7036 28.3159 11.7059 28.117 11.6483 27.9317C11.5908 27.7464 11.4762 27.5839 11.321 27.4675C11.3209 27.4674 11.3209 27.4674 11.3208 27.4674L8.33952 25.1989L8.33951 25.1989C8.24307 25.1255 8.13313 25.0719 8.01596 25.041C7.89879 25.0101 7.77668 25.0026 7.65662 25.019C7.41414 25.0519 7.19468 25.1798 7.04652 25.3746C6.97316 25.4711 6.91952 25.581 6.88865 25.6982C6.85778 25.8153 6.85029 25.9374 6.86661 26.0575C6.88293 26.1776 6.92274 26.2932 6.98376 26.3979C7.04479 26.5026 7.12583 26.5942 7.22227 26.6676C7.22227 26.6676 7.22227 26.6676 7.22227 26.6676L10.2039 28.9363Z" fill="#3284FF" stroke="#2E2E2E" stroke-width="0.1"/>
<path d="M50.9332 30.088L50.9333 30.088C51.0546 30.0877 51.1746 30.0636 51.2865 30.0169C51.3984 29.9702 51.5 29.9019 51.5855 29.8159C51.5855 29.8159 51.5855 29.8159 51.5856 29.8158L56.4815 24.9199L56.4815 24.9199L56.4821 24.9193C56.6502 24.7453 56.7432 24.5122 56.7411 24.2703C56.739 24.0284 56.6419 23.797 56.4709 23.626C56.2998 23.4549 56.0684 23.3579 55.8265 23.3558C55.5846 23.3537 55.3516 23.4467 55.1776 23.6147L55.177 23.6154L50.2809 28.5132C50.1519 28.6422 50.0641 28.8065 50.0285 28.9855C49.9929 29.1644 50.0112 29.3499 50.081 29.5184C50.1508 29.687 50.269 29.8311 50.4207 29.9325C50.5724 30.0338 50.7507 30.088 50.9332 30.088Z" fill="#3284FF" stroke="#2E2E2E" stroke-width="0.1"/>
<path d="M56.8224 27.838L56.8224 27.838L46.1682 10.5085L46.1682 10.5085C46.0492 10.3147 46.0059 10.0837 46.0468 9.85998C46.0877 9.63624 46.2097 9.43548 46.3896 9.29624C46.3896 9.29624 46.3896 9.29624 46.3896 9.29624L56.9417 1.12365C57.0642 1.0288 57.2086 0.966311 57.3615 0.94195C57.5145 0.917588 57.6712 0.932136 57.817 0.984254C57.9629 1.03637 58.0933 1.12438 58.1962 1.24016C58.2991 1.35594 58.3712 1.49577 58.4058 1.64675L58.4059 1.64676L63.595 24.2874L56.8224 27.838ZM56.8224 27.838C56.9051 27.9724 57.0208 28.0833 57.1586 28.1602C57.2964 28.2371 57.4515 28.2773 57.6092 28.2772M56.8224 27.838L58.0596 28.1617M58.0596 28.1617L58.0594 28.1618C57.9217 28.2383 57.7667 28.278 57.6092 28.2772M58.0596 28.1617L63.1476 25.3023L58.0596 28.1617ZM57.6092 28.2772C57.6091 28.2772 57.6091 28.2772 57.609 28.2772L57.6093 28.2272L57.6094 28.2772C57.6093 28.2772 57.6093 28.2772 57.6092 28.2772ZM63.5408 24.8696C63.6215 24.6866 63.6406 24.4824 63.5951 24.2876L63.1476 25.3022C63.3221 25.2044 63.4601 25.0526 63.5408 24.8696ZM56.9306 3.4661L61.6429 24.0266L57.9295 26.1138L48.1739 10.2466L56.9306 3.4661Z" fill="#3284FF" stroke="#2E2E2E" stroke-width="0.1"/>
<path d="M5.90622 1.96072L5.90622 1.96072C5.94086 1.80974 6.01295 1.66991 6.11586 1.55413C6.21876 1.43834 6.34916 1.35034 6.49504 1.29822C6.64091 1.2461 6.79756 1.23155 6.95053 1.25591C7.10351 1.28028 7.24788 1.34276 7.37035 1.43761C7.37035 1.43761 7.37035 1.43761 7.37035 1.43761L17.9233 9.60933C18.1032 9.74857 18.2253 9.94933 18.2661 10.1731C18.307 10.3968 18.2638 10.6278 18.1448 10.8216L18.1447 10.8216L7.48966 28.1511L7.48953 28.1513C7.40641 28.285 7.29045 28.3952 7.15271 28.4714C7.01496 28.5476 6.86 28.5873 6.70257 28.5868M5.90622 1.96072L1.16361 25.6136M5.90622 1.96072L0.716153 24.5988C0.716146 24.5988 0.716139 24.5988 0.716132 24.5989M5.90622 1.96072L0.716132 24.5989M6.70257 28.5868L6.70275 28.5368L6.70273 28.5868C6.70267 28.5868 6.70262 28.5868 6.70257 28.5868ZM6.70257 28.5868C6.54461 28.5866 6.38933 28.546 6.25159 28.4687L1.16361 25.6136M1.16361 25.6136C0.989079 25.5158 0.851062 25.364 0.770356 25.1809C0.689662 24.9979 0.670632 24.7936 0.716132 24.5989M1.16361 25.6136L0.716132 24.5989M16.1382 10.5605L6.38255 26.4286L2.66918 24.3423L7.38147 3.78007L16.1382 10.5605Z" fill="#3284FF" stroke="#2E2E2E" stroke-width="0.1"/>
</g>
</svg>
