<svg width="59" height="42" viewBox="0 0 59 42" fill="none" xmlns="http://www.w3.org/2000/svg">
<g opacity="0.9">
<path d="M3.67329 0.650879H37.2318C38.0968 0.651835 38.9261 0.995883 39.5377 1.60754C40.1494 2.21919 40.4934 3.0485 40.4944 3.91351V9.0405H49.8162C49.9806 9.04063 50.142 9.08411 50.2842 9.16656C50.4263 9.24901 50.5443 9.3675 50.626 9.51008L58.0835 22.5606C58.1637 22.7016 58.2059 22.861 58.2058 23.0232V33.7433C58.2049 34.6083 57.8608 35.4376 57.2492 36.0492C56.6375 36.6609 55.8082 37.0049 54.9432 37.0059H52.5335C52.3134 38.3091 51.6389 39.4922 50.6295 40.3454C49.6202 41.1986 48.3413 41.6667 47.0197 41.6667C45.698 41.6667 44.4191 41.1986 43.4098 40.3454C42.4004 39.4922 41.7259 38.3091 41.5058 37.0059H16.1785C15.9584 38.3091 15.2839 39.4922 14.2745 40.3454C13.2652 41.1986 11.9863 41.6667 10.6646 41.6667C9.34301 41.6667 8.06409 41.1986 7.05475 40.3454C6.0454 39.4922 5.37087 38.3091 5.15079 37.0059H3.67329C2.80828 37.0049 1.97898 36.6609 1.36732 36.0492C0.755669 35.4376 0.411617 34.6083 0.410664 33.7433V3.91351C0.411617 3.0485 0.755669 2.21919 1.36732 1.60754C1.97898 0.995883 2.80828 0.651835 3.67329 0.650879ZM50.8731 13.7014H44.2231V22.091H55.6668L50.8731 13.7014ZM56.3415 26.7519H54.4771C54.2299 26.7519 53.9928 26.8501 53.8179 27.0249C53.6431 27.1998 53.5449 27.4369 53.5449 27.6841C53.5449 27.9313 53.6431 28.1684 53.8179 28.3432C53.9928 28.5181 54.2299 28.6163 54.4771 28.6163H56.3415V26.7519ZM47.0197 39.8024C47.7571 39.8024 48.478 39.5837 49.0912 39.174C49.7044 38.7643 50.1823 38.182 50.4645 37.5006C50.7468 36.8193 50.8206 36.0696 50.6767 35.3463C50.5329 34.623 50.1777 33.9586 49.6563 33.4371C49.1348 32.9156 48.4704 32.5605 47.7471 32.4166C47.0238 32.2728 46.2741 32.3466 45.5927 32.6288C44.9114 32.911 44.3291 33.389 43.9193 34.0021C43.5096 34.6153 43.2909 35.3362 43.2909 36.0737C43.2922 37.0622 43.6855 38.0099 44.3845 38.7089C45.0835 39.4079 46.0311 39.8011 47.0197 39.8024ZM40.4944 35.1415H41.5058C41.7259 33.8384 42.4004 32.6552 43.4098 31.8021C44.4191 30.9489 45.698 30.4808 47.0197 30.4808C48.3413 30.4808 49.6202 30.9489 50.6295 31.8021C51.6389 32.6552 52.3134 33.8384 52.5335 35.1415H54.9432C55.3139 35.1412 55.6694 34.9938 55.9316 34.7317C56.1937 34.4695 56.3411 34.114 56.3415 33.7433V30.4806H54.4771C53.7354 30.4806 53.0241 30.186 52.4996 29.6615C51.9752 29.1371 51.6806 28.4258 51.6806 27.6841C51.6806 26.9424 51.9752 26.2311 52.4996 25.7066C53.0241 25.1822 53.7354 24.8876 54.4771 24.8876H56.3415V23.9554H43.2909C43.0437 23.9554 42.8066 23.8572 42.6318 23.6823C42.457 23.5075 42.3588 23.2704 42.3588 23.0232V12.7692C42.3588 12.522 42.457 12.2849 42.6318 12.1101C42.8066 11.9352 43.0437 11.837 43.2909 11.837H49.808L49.2755 10.9049H40.4944V35.1415ZM10.6646 39.8024C11.4021 39.8024 12.123 39.5837 12.7362 39.174C13.3494 38.7643 13.8273 38.182 14.1095 37.5006C14.3917 36.8193 14.4656 36.0696 14.3217 35.3463C14.1778 34.623 13.8227 33.9586 13.3012 33.4371C12.7798 32.9156 12.1154 32.5605 11.3921 32.4166C10.6688 32.2728 9.91906 32.3466 9.23772 32.6288C8.55639 32.911 7.97404 33.389 7.56432 34.0021C7.15461 34.6153 6.93592 35.3362 6.93592 36.0737C6.93722 37.0622 7.33048 38.0099 8.02947 38.7089C8.72846 39.4079 9.67612 39.8011 10.6646 39.8024ZM2.27502 33.7433C2.27533 34.114 2.42274 34.4695 2.68491 34.7317C2.94707 34.9938 3.30254 35.1412 3.67329 35.1415H5.15079C5.37087 33.8384 6.0454 32.6552 7.05475 31.8021C8.06409 30.9489 9.34301 30.4808 10.6646 30.4808C11.9863 30.4808 13.2652 30.9489 14.2745 31.8021C15.2839 32.6552 15.9584 33.8384 16.1785 35.1415H38.63V28.6163H2.27502V33.7433ZM2.27502 26.7519H38.63V3.91351C38.6297 3.54276 38.4823 3.18728 38.2201 2.92512C37.958 2.66296 37.6025 2.51555 37.2318 2.51524H3.67329C3.30254 2.51555 2.94707 2.66296 2.68491 2.92512C2.42274 3.18728 2.27533 3.54276 2.27502 3.91351V26.7519Z" fill="#3284FF"/>
</g>
</svg>
