<svg width="65" height="57" viewBox="0 0 65 57" fill="none" xmlns="http://www.w3.org/2000/svg">
<g opacity="0.9">
<path d="M35.2897 48.1065C34.8868 46.9992 33.8245 46.2554 32.6466 46.2554C32.3186 46.2554 31.9951 46.3126 31.6848 46.4254C30.2275 46.9559 29.4736 48.5732 30.0038 50.0306C30.4068 51.1378 31.4692 51.8816 32.647 51.8816C32.975 51.8816 33.2986 51.8243 33.6087 51.7116C35.0661 51.1812 35.8202 49.5639 35.2897 48.1065ZM32.9675 49.9496C32.8636 49.9874 32.7558 50.0066 32.6471 50.0066C32.2543 50.0066 31.9002 49.7585 31.7658 49.3893C31.589 48.9035 31.8404 48.3643 32.3261 48.1875C32.43 48.1497 32.5379 48.1305 32.6465 48.1305C33.0392 48.1305 33.3933 48.3786 33.5277 48.748C33.7046 49.2336 33.4533 49.7727 32.9675 49.9496Z" fill="#3284FF"/>
<path d="M64.5481 39.4609L63.2652 35.9369C63.1774 35.6957 63.0009 35.5129 62.7862 35.4108C62.7843 35.41 62.7824 35.4089 62.7805 35.408C62.7665 35.4013 62.7519 35.3962 62.7375 35.3903C62.724 35.3848 62.7108 35.3786 62.697 35.3737C62.6938 35.3725 62.6903 35.3717 62.6869 35.3707C62.4915 35.3038 62.2729 35.3002 62.0637 35.3765L58.9978 36.4914L52.4759 18.5714C52.4758 18.5709 52.4754 18.5705 52.4753 18.5702L49.9108 11.5236C49.7758 11.1548 49.422 10.9071 49.0295 10.9071C48.9207 10.9071 48.812 10.9259 48.7095 10.9634C48.2232 11.1397 47.9719 11.6797 48.1482 12.1647L50.3935 18.3318L38.3531 22.7139C38.3531 22.7139 38.3527 22.7139 38.3525 22.714C38.3521 22.7141 38.3518 22.7144 38.3515 22.7144L31.0111 25.3859L26.0937 11.8778L32.5551 9.5264L33.9447 13.3435C34.0785 13.7123 34.4323 13.9611 34.8248 13.9611C34.9348 13.9611 35.0423 13.9424 35.1461 13.9035L39.8451 12.1934C40.0801 12.1084 40.2676 11.9359 40.3739 11.7096C40.4524 11.5413 40.478 11.3579 40.4519 11.1788C40.4518 11.1778 40.4518 11.1768 40.4516 11.1759C40.448 11.1515 40.4428 11.127 40.4371 11.1029C40.4355 11.096 40.4346 11.0895 40.433 11.0827C40.4254 11.0523 40.4161 11.0221 40.4053 10.9921L39.0161 7.17495L45.4762 4.82387L48.2407 12.3909C48.3757 12.7597 48.8545 13.0084 49.247 13.0084C49.3558 13.0084 49.3395 12.9897 49.4433 12.9509C49.9283 12.7747 50.1796 12.2358 50.0033 11.7496L46.9181 3.30024C46.7999 2.97759 46.5144 2.74769 46.1818 2.69519C46.1342 2.68769 46.0857 2.68381 46.0367 2.68381C45.928 2.68381 45.8192 2.70257 45.7167 2.74007L37.498 5.7317C37.4966 5.7322 37.4951 5.73232 37.4938 5.73282C37.4913 5.7337 37.489 5.73495 37.4865 5.73582L32.803 7.44072C32.8002 7.44172 32.7975 7.44197 32.7947 7.44297C32.7901 7.44472 32.7857 7.44697 32.7811 7.44872L24.5718 10.4368C24.3368 10.5219 24.1492 10.6944 24.043 10.9206C23.9367 11.1482 23.9255 11.4031 24.0117 11.6382L29.5695 26.9089L34.914 41.5941C34.2365 41.3871 33.5251 41.2708 32.7965 41.2567L19.2567 4.05581C18.3726 1.62697 15.6774 0.370242 13.2483 1.25407C13.2479 1.25419 13.2476 1.25444 13.2472 1.25457L1.2183 5.59294C1.2183 5.59294 1.21792 5.59306 1.21767 5.59319C1.21705 5.59344 1.21642 5.59356 1.21567 5.59381C1.19405 5.60169 1.17354 5.61106 1.15292 5.62031C1.14504 5.62381 1.13679 5.62669 1.12904 5.63044C1.10879 5.64007 1.08954 5.65132 1.07028 5.66232C1.06241 5.66682 1.05403 5.67069 1.04628 5.67557C1.02778 5.68682 1.01053 5.69932 0.993028 5.7117C0.985278 5.7172 0.977027 5.7222 0.969526 5.72782C0.953275 5.7402 0.938149 5.75358 0.922772 5.76695C0.915022 5.77383 0.906646 5.77995 0.899145 5.78695C0.884644 5.8002 0.871393 5.81483 0.857892 5.82896C0.850516 5.83683 0.842641 5.84396 0.835515 5.85196C0.822764 5.86634 0.811138 5.88171 0.799262 5.89684C0.792511 5.90534 0.785136 5.91359 0.77876 5.92246C0.768009 5.93722 0.758508 5.95272 0.748633 5.96809C0.742257 5.9781 0.735256 5.9876 0.729256 5.99772C0.720255 6.01297 0.712504 6.02897 0.704379 6.04473C0.698753 6.0556 0.692503 6.06623 0.687252 6.07735C0.680002 6.09285 0.674126 6.10886 0.667626 6.12473C0.66275 6.13686 0.65725 6.14836 0.652999 6.16061C0.647499 6.17611 0.643249 6.19211 0.638623 6.20786C0.634748 6.22087 0.630247 6.23374 0.626872 6.24699C0.622997 6.26249 0.620372 6.2785 0.617246 6.29425C0.614496 6.308 0.611121 6.32175 0.608996 6.33562C0.606495 6.35163 0.60562 6.36788 0.603995 6.384C0.60262 6.39801 0.600495 6.41201 0.599745 6.42613C0.59887 6.44264 0.599495 6.45914 0.599495 6.47564C0.599495 6.48976 0.598745 6.50389 0.59937 6.51802C0.60012 6.53477 0.602495 6.55164 0.60412 6.56839C0.605495 6.58227 0.606245 6.59627 0.608246 6.61027C0.610746 6.6269 0.614746 6.64353 0.618121 6.66015C0.620997 6.67428 0.623122 6.68853 0.626622 6.70266C0.630747 6.71928 0.636623 6.73566 0.641748 6.75216C0.645999 6.76579 0.649374 6.77966 0.654249 6.79329C0.654375 6.79354 0.6545 6.79391 0.654625 6.79416C0.65475 6.79479 0.654875 6.79529 0.655125 6.79591L1.93786 10.32C1.94748 10.3465 1.96074 10.3706 1.97236 10.3957C1.98149 10.4152 1.98886 10.436 1.99924 10.4546C2.01387 10.481 2.03149 10.5045 2.04837 10.5291C2.05899 10.5445 2.06799 10.5614 2.0795 10.576C2.09962 10.6019 2.12262 10.6249 2.14513 10.6481C2.15563 10.659 2.16488 10.6714 2.17588 10.6817C2.20126 10.7056 2.22913 10.7264 2.25676 10.7471C2.26676 10.7548 2.27576 10.7636 2.28601 10.7706C2.31589 10.7913 2.34789 10.8086 2.3799 10.8255C2.3894 10.8305 2.39815 10.837 2.40777 10.8418C2.44053 10.8578 2.4749 10.8701 2.50928 10.8821C2.51928 10.8856 2.52866 10.8906 2.53878 10.8939C2.57404 10.905 2.61029 10.9121 2.64679 10.9191C2.6568 10.921 2.66655 10.9245 2.67667 10.926C2.72343 10.9334 2.77105 10.937 2.81906 10.937C2.84556 10.937 2.87219 10.9358 2.89894 10.9336C2.90444 10.9331 2.90982 10.932 2.91532 10.9315C2.93657 10.9293 2.9577 10.9269 2.97895 10.9233C2.9887 10.9215 2.99845 10.9189 3.0082 10.9169C3.02508 10.9134 3.04195 10.9101 3.0587 10.9056C3.07658 10.901 3.09421 10.8949 3.11196 10.889C3.12033 10.8864 3.12871 10.8841 3.13696 10.8811L3.13796 10.8808C3.13846 10.8806 3.13896 10.8804 3.13946 10.8803C3.13984 10.8801 3.14021 10.8799 3.14059 10.8798L14.2899 6.85842L27.5114 43.1831C25.153 45.2461 24.1708 48.6243 25.3052 51.741C26.4248 54.8169 29.3754 56.8837 32.6476 56.8837C33.5579 56.8837 34.4568 56.7245 35.3192 56.4106C37.2802 55.6968 38.8459 54.2623 39.728 52.3709C40.1967 51.3655 40.4401 50.2952 40.4604 49.2184L63.9875 40.6628L63.9878 40.6627C63.994 40.6604 63.9999 40.6574 64.006 40.655C64.0299 40.6458 64.0535 40.6364 64.0761 40.6254C64.0858 40.6208 64.0947 40.6152 64.1042 40.6102C64.1227 40.6005 64.1412 40.5912 64.1588 40.5804C64.1688 40.5742 64.178 40.5669 64.1878 40.5605C64.2038 40.5498 64.2202 40.5394 64.2354 40.5279C64.2403 40.5242 64.2445 40.5199 64.2493 40.5162C64.2685 40.5008 64.2877 40.4854 64.3055 40.4688C64.3085 40.4655 64.3113 40.4624 64.3143 40.4595C64.3332 40.4413 64.3517 40.4229 64.369 40.4034C64.3725 40.3995 64.3754 40.3951 64.3789 40.3911C64.3952 40.3721 64.4111 40.3529 64.4257 40.3328C64.4273 40.3306 64.4286 40.3283 64.4301 40.326C64.4459 40.3036 64.4612 40.2809 64.4751 40.2573C64.4776 40.253 64.4796 40.2484 64.4821 40.244C64.4944 40.2223 64.5063 40.2004 64.5169 40.1778C64.5211 40.1689 64.5243 40.1595 64.5281 40.1505C64.5361 40.132 64.5442 40.1135 64.5511 40.0945C64.5557 40.0814 64.5591 40.0679 64.5631 40.0546C64.5678 40.0392 64.5732 40.024 64.5771 40.0084C64.5828 39.9852 64.5871 39.9617 64.5911 39.9382C64.5921 39.932 64.5938 39.926 64.5947 39.9199C64.6171 39.7703 64.6034 39.6131 64.5481 39.4609ZM37.2544 7.81625L38.3226 10.7528L35.3858 11.8216L34.317 8.88522L37.2544 7.81625ZM42.8123 23.0868L43.8813 26.0231L40.9437 27.0921L39.8751 24.1558L42.8123 23.0868ZM31.6529 27.148L38.1133 24.7969L39.5029 28.614C39.6367 28.9828 39.9905 29.2314 40.3843 29.2314C40.493 29.2314 40.6005 29.2116 40.7043 29.1739L45.4033 27.4638C45.8896 27.2875 46.1409 26.7487 45.9634 26.2624L44.5739 22.4456L51.0353 20.094L57.2364 37.1314L38.53 43.9341C38.1787 43.5329 37.7893 43.1686 37.3667 42.8482L31.6529 27.148ZM15.7325 5.33829C15.727 5.32329 15.7202 5.30916 15.714 5.29441C15.7079 5.28004 15.7024 5.26516 15.6957 5.25103C15.6895 5.23816 15.6823 5.22641 15.6757 5.21403C15.6674 5.19865 15.6595 5.1829 15.6505 5.16815C15.6443 5.15803 15.6371 5.14877 15.6305 5.1389C15.6199 5.1229 15.6096 5.10665 15.598 5.09152C15.592 5.08352 15.5851 5.07639 15.5789 5.06852C15.5659 5.05239 15.553 5.03626 15.5389 5.02114C15.5333 5.01501 15.5269 5.00951 15.521 5.00351C15.5055 4.98776 15.4901 4.97201 15.4736 4.95738C15.4689 4.95326 15.4638 4.94963 15.459 4.94563C15.4408 4.93001 15.4223 4.91463 15.4029 4.90063C15.4001 4.89863 15.3971 4.89713 15.3944 4.895C15.3726 4.8795 15.3504 4.86475 15.3274 4.85112C15.3256 4.85012 15.3237 4.84925 15.322 4.84837C15.194 4.77399 15.049 4.73011 14.899 4.72224C14.8976 4.72224 14.8963 4.72236 14.895 4.72224C14.866 4.72086 14.8368 4.72074 14.8075 4.72211C14.8021 4.72236 14.7967 4.72336 14.7913 4.72374C14.7661 4.72536 14.7408 4.72736 14.7156 4.73111C14.7034 4.73299 14.6914 4.73599 14.6793 4.73836C14.6608 4.74174 14.6422 4.74486 14.6237 4.74949C14.6027 4.75474 14.5818 4.76187 14.5609 4.76849C14.5517 4.77149 14.5423 4.77374 14.5331 4.77699L14.5318 4.77749C14.5314 4.77762 14.5309 4.77774 14.5304 4.77787C14.5301 4.77799 14.5297 4.77824 14.5293 4.77837L3.37998 8.79971L2.73855 7.03756L13.8865 3.01672C13.8868 3.01659 13.8869 3.01647 13.8871 3.01647C13.8878 3.01622 13.8884 3.01609 13.8891 3.01584C15.3468 2.48542 16.9638 3.23949 17.4942 4.69699L30.8746 41.4597C30.5708 41.5307 30.2701 41.6189 29.974 41.7268C29.6756 41.8354 29.3893 41.9623 29.1128 42.1023L15.7325 5.33829ZM38.0282 51.5781C37.3579 53.0156 36.168 54.1059 34.6776 54.6484C34.0213 54.8873 33.3382 55.0084 32.6474 55.0084C30.1605 55.0084 27.9179 53.4375 27.0671 51.0994C25.9473 48.0229 27.5393 44.6088 30.6159 43.4888C31.2722 43.2499 31.9553 43.1288 32.6462 43.1288C35.1329 43.1288 37.3756 44.6996 38.2264 47.0378C38.769 48.5282 38.6986 50.1407 38.0282 51.5781ZM40.2551 47.2975C40.1839 46.9945 40.0966 46.6937 39.9885 46.3967C39.8805 46.0998 39.7548 45.8125 39.6141 45.5352L61.8237 37.4588L62.4651 39.2209L40.2551 47.2975Z" fill="#3284FF"/>
</g>
</svg>
