<svg width="50" height="49" viewBox="0 0 50 49" fill="none" xmlns="http://www.w3.org/2000/svg">
<g opacity="0.9">
<path d="M48.9785 0.0776367H32.2613C31.1717 0.0800446 30.1271 0.512263 29.3541 1.27998L23.9813 6.65282H2.95227C1.5906 6.65282 0.486572 7.75684 0.486572 9.11851V27.2003C0.486572 28.5619 1.5906 29.666 2.95227 29.666H39.1158C40.4774 29.666 41.5815 28.5619 41.5815 27.2003V18.9813H44.0472C45.9992 18.9793 47.6815 17.606 48.0744 15.6937H48.9785C49.4324 15.6937 49.8004 15.3257 49.8004 14.8718V0.899535C49.8004 0.445645 49.4324 0.0776367 48.9785 0.0776367ZM39.9377 27.2003C39.9377 27.6542 39.5697 28.0222 39.1158 28.0222H2.95227C2.49838 28.0222 2.13037 27.6542 2.13037 27.2003V9.11851C2.13037 8.66462 2.49838 8.29662 2.95227 8.29662H32.5406V9.2056L29.2803 12.4651C28.9921 12.7544 28.8232 13.1409 28.8067 13.5487C28.8067 13.5763 28.7983 13.6028 28.7983 13.6309C28.7967 14.068 28.9701 14.4877 29.2803 14.7964L29.8554 15.3714C30.6251 16.144 31.6705 16.5782 32.7609 16.5782C33.8513 16.5782 34.8967 16.144 35.6665 15.3714L39.4561 11.5842H39.9377V27.2003ZM48.1566 14.0499H47.3348C46.8809 14.0499 46.5129 14.4179 46.5129 14.8718C46.5129 16.2335 45.4088 17.3375 44.0472 17.3375H41.5815V11.5842C43.8501 11.5814 45.6881 9.74336 45.691 7.47472H44.0472C44.0472 8.83639 42.9431 9.94041 41.5815 9.94041H39.1158C38.8979 9.94041 38.6888 10.0271 38.5347 10.1812L34.5074 14.2084C34.1567 14.5612 33.708 14.7996 33.2196 14.8923C32.4178 15.0347 31.5971 14.7795 31.0176 14.2076L30.4421 13.6281L33.9428 10.127C34.0973 9.97292 34.184 9.76383 34.1844 9.54592V7.47472C34.1844 7.02083 33.8164 6.65282 33.3625 6.65282H26.3057L30.5163 2.4422C30.9803 1.98189 31.6075 1.72304 32.2613 1.72143H48.1566V14.0499Z" fill="#3284FF"/>
<path d="M21.0342 11.5845C17.4026 11.5845 14.459 14.5281 14.459 18.1597C14.459 21.7912 17.4026 24.7348 21.0342 24.7348C24.6657 24.7348 27.6094 21.7912 27.6094 18.1597C27.6053 14.5301 24.6637 11.5885 21.0342 11.5845ZM21.0342 23.091C18.3108 23.091 16.1028 20.883 16.1028 18.1597C16.1028 15.4363 18.3108 13.2283 21.0342 13.2283C23.7575 13.2283 25.9656 15.4363 25.9656 18.1597C25.9627 20.8822 23.7567 23.0882 21.0342 23.091Z" fill="#3284FF"/>
<path d="M6.99675 10.5978C6.73348 11.8896 5.72337 12.8993 4.43153 13.1622C4.04907 13.2405 3.77417 13.5772 3.77417 13.9676V22.3512C3.77417 22.7416 4.04907 23.0784 4.43153 23.1566C5.72337 23.4195 6.73348 24.4292 6.99675 25.721C7.075 26.1035 7.41131 26.378 7.80139 26.3784H11.1713V24.7346H8.42463C7.92981 23.3288 6.82378 22.2227 5.41797 21.7279V14.5909C6.82378 14.0961 7.92981 12.99 8.42463 11.5842H11.1713V9.94043H7.80139C7.41131 9.94083 7.075 10.2153 6.99675 10.5978Z" fill="#3284FF"/>
<path d="M36.65 21.7278C35.2442 22.2226 34.1382 23.3287 33.6433 24.7345H30.8967V26.3783H34.2666C34.6567 26.3779 34.993 26.1034 35.0712 25.7209C35.3345 24.4291 36.3446 23.4194 37.6365 23.1565C38.0189 23.0782 38.2938 22.7415 38.2938 22.3511V17.3374H36.65V21.7278Z" fill="#3284FF"/>
<path d="M39.2342 33.9573C38.212 33.5817 37.0819 33.6326 36.0979 34.0986L25.4485 39.0568C26.1548 37.7843 26.1348 36.2328 25.3967 34.9787C24.6583 33.7241 23.3115 32.954 21.8559 32.9536H9.52745C7.30535 32.952 5.28191 34.2326 4.3324 36.2412H1.30847C0.85458 36.2412 0.486572 36.6092 0.486572 37.0631V47.7478C0.486572 48.2017 0.85458 48.5697 1.30847 48.5697H23.5924C24.1928 48.5685 24.7855 48.4372 25.3301 48.1852L39.5721 41.5466C41.6196 40.5782 42.5041 38.1406 41.5542 36.0843C41.0967 35.0934 40.2611 34.3269 39.2342 33.9573ZM38.875 40.0581L24.6354 46.6951C24.3088 46.8468 23.9528 46.9255 23.5924 46.9259H2.13037V37.885H4.88381C5.23335 37.885 5.54478 37.6635 5.65955 37.3336C6.23584 35.6918 7.78734 34.5938 9.52745 34.5974H21.8559C23.2176 34.5974 24.3216 35.7014 24.3216 37.0631C24.3216 38.4248 23.2176 39.5288 21.8559 39.5288H14.4588V41.1726H23.8902C24.489 41.1714 25.0809 41.0406 25.6243 40.7889L36.7946 35.5879C37.3845 35.3114 38.0599 35.2805 38.6727 35.5024C39.2851 35.7239 39.7844 36.1802 40.0601 36.7705C40.2118 37.0992 40.2904 37.4572 40.2912 37.8192C40.2908 38.7763 39.7394 39.6476 38.875 40.0581Z" fill="#3284FF"/>
</g>
</svg>
