<svg width="17" height="21" viewBox="0 0 17 21" fill="none" xmlns="http://www.w3.org/2000/svg">
<path d="M8.63184 10.4233C9.73184 10.4233 10.6318 9.52334 10.6318 8.42334C10.6318 7.32334 9.73184 6.42334 8.63184 6.42334C7.53184 6.42334 6.63184 7.32334 6.63184 8.42334C6.63184 9.52334 7.53184 10.4233 8.63184 10.4233ZM8.63184 0.42334C12.8318 0.42334 16.6318 3.64334 16.6318 8.62334C16.6318 11.8033 14.1818 15.5433 9.29184 19.8533C8.91184 20.1833 8.34184 20.1833 7.96184 19.8533C3.08184 15.5433 0.631836 11.8033 0.631836 8.62334C0.631836 3.64334 4.43184 0.42334 8.63184 0.42334Z" fill="white"/>
</svg>
