<svg width="16" height="16" viewBox="0 0 16 16" fill="none" xmlns="http://www.w3.org/2000/svg">
<path d="M12.0467 2.8951H1.03674C0.486743 2.8951 0.0367432 3.3451 0.0367432 3.8951C0.0367432 4.4451 0.486743 4.8951 1.03674 4.8951H12.0467V6.6851C12.0467 7.1351 12.5867 7.3551 12.8967 7.0351L15.6767 4.2451C15.8667 4.0451 15.8667 3.7351 15.6767 3.5351L12.8967 0.745098C12.5867 0.425098 12.0467 0.655097 12.0467 1.0951V2.8951Z" fill="#3284FF"/>
<path d="M3.80921 13.5424L14.8192 13.5424C15.3692 13.5424 15.8192 13.0924 15.8192 12.5424C15.8192 11.9924 15.3692 11.5424 14.8192 11.5424L3.80921 11.5424V9.7524C3.80921 9.3024 3.26921 9.0824 2.95921 9.4024L0.179214 12.1924C-0.0107851 12.3924 -0.0107851 12.7024 0.179214 12.9024L2.95921 15.6924C3.26921 16.0124 3.80921 15.7824 3.80921 15.3424V13.5424Z" fill="#3284FF"/>
</svg>
