<svg width="21" height="17" viewBox="0 0 21 17" fill="none" xmlns="http://www.w3.org/2000/svg">
<path d="M18.0361 0.432755H2.03613C0.936133 0.432755 0.0461328 1.33275 0.0461328 2.43275L0.0361328 14.4328C0.0361328 15.5328 0.936133 16.4328 2.03613 16.4328H18.0361C19.1361 16.4328 20.0361 15.5328 20.0361 14.4328V2.43275C20.0361 1.33275 19.1361 0.432755 18.0361 0.432755ZM17.6361 4.68275L10.5661 9.10275C10.2461 9.30275 9.82613 9.30275 9.50613 9.10275L2.43613 4.68275C2.18613 4.52275 2.03613 4.25275 2.03613 3.96275C2.03613 3.29275 2.76613 2.89275 3.33613 3.24275L10.0361 7.43275L16.7361 3.24275C17.3061 2.89275 18.0361 3.29275 18.0361 3.96275C18.0361 4.25275 17.8861 4.52275 17.6361 4.68275Z" fill="white"/>
</svg>
