<svg width="18" height="19" viewBox="0 0 18 19" fill="none" xmlns="http://www.w3.org/2000/svg">
<path d="M16.2398 12.4256L13.6998 12.1356C13.0898 12.0656 12.4898 12.2756 12.0598 12.7056L10.2198 14.5456C7.38981 13.1056 5.06981 10.7956 3.62981 7.95557L5.47981 6.10557C5.90981 5.67557 6.11981 5.07557 6.04981 4.46557L5.75981 1.94557C5.63981 0.935568 4.78981 0.175568 3.76981 0.175568H2.03981C0.909807 0.175568 -0.0301937 1.11557 0.0398063 2.24557C0.569806 10.7856 7.39981 17.6056 15.9298 18.1356C17.0598 18.2056 17.9998 17.2656 17.9998 16.1356V14.4056C18.0098 13.3956 17.2498 12.5456 16.2398 12.4256Z" fill="white"/>
</svg>
